<svg width="1142" height="1040" viewBox="0 0 1142 1040" fill="none" xmlns="http://www.w3.org/2000/svg">
<ellipse cx="500" cy="539.56" rx="500" ry="494.56" fill="url(#paint0_linear)"/>
<mask id="mask0" mask-type="alpha" maskUnits="userSpaceOnUse" x="-44" y="798" width="1639" height="252">
<path fill-rule="evenodd" clip-rule="evenodd" d="M-44 834.171L1.0725 852.157C47.5108 870.143 137.656 906.114 229.167 906.114C320.677 906.114 410.822 870.143 502.333 840.167C593.844 810.191 683.989 786.21 775.5 804.195C867.011 822.181 957.156 882.133 1048.67 930.095C1140.18 978.057 1230.32 1014.03 1321.83 1008.03C1413.34 1002.04 1503.49 954.076 1549.93 930.095L1595 906.114V1050H1549.93C1503.49 1050 1413.34 1050 1321.83 1050C1230.32 1050 1140.18 1050 1048.67 1050C957.156 1050 867.011 1050 775.5 1050C683.989 1050 593.844 1050 502.333 1050C410.822 1050 320.677 1050 229.167 1050C137.656 1050 47.5108 1050 1.0725 1050H-44V834.171Z" fill="white"/>
</mask>
<g mask="url(#mask0)">
<ellipse cx="500" cy="539.56" rx="500" ry="494.56" fill="url(#paint1_linear)"/>
</g>
<path d="M1097.5 330.624C1079.2 317.605 1007.36 258.561 742.884 253.134C478.421 247.717 256.831 377.457 279.365 535.437C284.104 568.656 329.748 658.503 451.437 653.687C527.945 650.672 594.013 581.135 708.644 504.208C786.941 451.653 946.074 360.44 1087.88 362.464C1129.4 367.477 1108.05 338.14 1097.5 330.624Z" fill="white"/>
<defs>
<linearGradient id="paint0_linear" x1="114" y1="157.265" x2="748.684" y2="876.33" gradientUnits="userSpaceOnUse">
<stop stop-color="#F207B0"/>
<stop offset="1" stop-color="#E44C4C" stop-opacity="0.93"/>
</linearGradient>
<linearGradient id="paint1_linear" x1="114" y1="157.265" x2="748.684" y2="876.33" gradientUnits="userSpaceOnUse">
<stop stop-color="white"/>
<stop offset="1" stop-color="white" stop-opacity="0.93"/>
</linearGradient>
</defs>
</svg>
