<svg width="3107" height="865" viewBox="0 0 3107 865" fill="none" xmlns="http://www.w3.org/2000/svg">
<g clip-path="url(#clip0)">
<path d="M533.145 173.059C577.689 382.286 97.6426 412.003 98.236 788.035" stroke="white" stroke-width="50"/>
<mask id="mask0" mask-type="alpha" maskUnits="userSpaceOnUse" x="291" y="513" width="352" height="314">
<g clip-path="url(#clip1)">
<path d="M465.175 813.026C465.737 819.625 459.216 825.463 450.588 826.058C441.982 826.653 434.515 821.794 433.953 815.19C433.391 808.587 439.912 802.758 448.529 802.154C457.146 801.554 464.602 806.427 465.175 813.026Z" fill="#787878"/>
<path d="M566.16 769.497C574.807 769.483 581.808 764.103 581.798 757.479C581.787 750.856 574.769 745.497 566.122 745.511C557.476 745.525 550.474 750.905 550.485 757.529C550.495 764.152 557.513 769.51 566.16 769.497Z" fill="#787878"/>
<path d="M379.536 750.192C375.162 755.548 365.966 756.203 358.98 751.646C351.989 747.109 349.856 739.077 354.231 733.73C358.594 728.364 367.795 727.71 374.776 732.267C381.767 736.804 383.889 744.841 379.536 750.192Z" fill="#787878"/>
<path d="M461.029 810.673C460.849 814.391 453.23 817.344 449.066 817.194C444.896 817.039 437.563 813.963 437.738 810.236L448.244 673.964C448.441 670.246 451.966 667.359 456.136 667.513C460.284 667.663 463.513 670.814 463.339 674.531L461.029 810.673Z" fill="#A7A6A7"/>
<path d="M573.177 749.007C576.159 751.235 571.406 758.639 568.918 761.31C566.414 763.976 560.749 765.651 557.751 763.428L453.678 678.465C450.674 676.242 450.291 672.256 452.779 669.6C455.272 666.933 459.714 666.57 462.685 668.793L573.144 749.007" fill="#A7A6A7"/>
<path d="M375.601 746.31C373.309 748.018 364.519 743.328 362.609 741.26C360.693 739.201 360.085 735.128 362.383 733.41L447.891 671.84C450.195 670.121 453.627 670.409 455.537 672.477C457.448 674.546 457.125 677.594 454.81 679.313L375.601 746.31Z" fill="#A7A6A7"/>
<path d="M459.468 676.882C468.903 676.867 476.541 670.657 476.529 663.011C476.517 655.365 468.859 649.179 459.424 649.194C449.99 649.209 442.351 655.419 442.364 663.065C442.376 670.711 450.034 676.897 459.468 676.882Z" fill="#959595"/>
<path d="M621.208 676.725C627.765 679.939 630.154 687.282 626.567 693.16L615.557 711.047C611.97 716.9 603.738 719.057 597.181 715.843L309.628 599.006C303.065 595.792 300.66 588.434 304.268 582.581L340.227 524.011C343.83 518.148 352.056 516 358.603 519.219L621.213 676.739" fill="#D1D2D3"/>
<path d="M624.261 696.387C620.674 702.241 612.442 704.398 605.885 701.184L318.332 584.347C312.6 581.523 310.05 575.562 311.899 570.185L304.263 582.635C300.655 588.488 303.06 595.856 309.623 599.06L597.17 715.897C603.727 719.116 611.959 716.963 615.546 711.105L626.556 693.213C627.003 692.475 627.357 691.703 627.618 690.921L624.272 696.383" fill="#BEC0C0"/>
<path d="M614.883 685.972L602.128 706.769C599.883 710.431 596.236 712.914 592.259 713.897L597.143 715.887C603.689 719.106 611.932 716.953 615.518 711.095L626.529 693.204C630.115 687.331 627.727 679.983 621.175 676.769L615.88 673.582C617.591 677.336 617.396 681.924 614.9 685.972" fill="#A7A6A7"/>
<path d="M468.66 624.803C475.162 614.216 479.725 603.501 482.381 593.453L471.611 586.987C469.818 597.298 465.454 608.726 458.52 620.012C451.178 631.977 442.106 641.898 432.767 648.865L444.573 653.648C453.321 646.018 461.666 636.211 468.66 624.803Z" fill="#A7A6A7"/>
</g>
</mask>
<g mask="url(#mask0)">
<rect x="150.83" y="97.332" width="526.74" height="813.829" transform="rotate(-0.0904159 150.83 97.332)" fill="white"/>
</g>
<g filter="url(#filter0_d)">
<path d="M909.966 616.465C889.633 616.497 869.794 613.195 850.451 606.559C831.107 599.923 814.425 590.282 800.405 577.638L815.868 554.613C830.554 566.59 845.402 575.567 860.411 581.543C875.754 587.519 892.092 590.493 909.425 590.466C930.425 590.433 947.085 586.24 959.405 577.887C972.058 569.2 978.373 557.024 978.348 541.357C978.336 534.024 976.66 528.026 973.319 523.365C969.978 518.37 964.971 514.045 958.299 510.388C951.96 506.732 943.788 503.578 933.784 500.927C924.113 497.942 912.774 494.96 899.77 491.981C884.764 488.338 871.758 484.692 860.752 481.042C849.747 477.393 840.573 473.241 833.233 468.586C826.225 463.93 820.883 458.272 817.206 451.611C813.862 444.616 812.181 435.952 812.165 425.619C812.144 412.619 814.626 401.115 819.61 391.107C824.928 381.099 831.915 372.921 840.572 366.574C849.561 359.893 859.887 354.877 871.548 351.525C883.543 348.173 896.207 346.486 909.54 346.465C929.54 346.434 947.712 349.738 964.056 356.379C980.399 362.687 993.579 371.166 1003.6 381.817L987.128 401.843C977.445 391.858 965.6 384.377 951.592 379.399C937.918 374.42 923.58 371.943 908.58 371.967C899.58 371.981 891.249 372.994 883.585 375.006C875.921 376.685 869.092 379.529 863.099 383.539C857.438 387.547 852.946 392.721 849.623 399.06C846.299 405.065 844.644 412.234 844.657 420.568C844.668 427.568 845.844 433.232 848.184 437.562C850.524 441.892 854.363 445.719 859.702 449.044C865.04 452.036 871.711 454.858 879.715 457.512C888.052 459.833 898.056 462.317 909.727 464.965C926.4 468.939 941.073 472.916 953.746 476.896C966.419 480.876 976.926 485.526 985.268 490.846C993.943 496.166 1000.45 502.655 1004.8 510.315C1009.14 517.975 1011.33 527.305 1011.34 538.305C1011.38 562.305 1002.24 581.319 983.933 595.348C965.622 609.377 940.966 616.416 909.966 616.465ZM1200.12 616.007C1178.12 616.042 1158.61 610.572 1141.59 599.599C1124.91 588.292 1111.39 574.147 1101.03 557.163L1101.28 717.663L1067.28 717.717L1066.7 350.717L1097.2 350.669L1097.28 401.169C1107.92 384.819 1121.73 371.63 1138.72 361.604C1155.7 351.243 1174.19 346.048 1194.19 346.016C1212.19 345.988 1228.7 349.795 1243.71 357.438C1258.72 364.748 1271.74 374.727 1282.76 387.376C1293.78 399.692 1302.3 414.012 1308.33 430.336C1314.68 446.659 1317.88 463.488 1317.91 480.821C1317.93 499.154 1315.13 516.492 1309.49 532.834C1303.85 549.177 1295.7 563.523 1285.05 575.873C1274.74 588.223 1262.26 598.076 1247.6 605.432C1233.28 612.455 1217.45 615.98 1200.12 616.007ZM1190.57 586.022C1204.57 586 1217.23 582.98 1228.56 576.962C1240.21 570.944 1250.03 563.095 1258.02 553.416C1266.34 543.402 1272.65 532.226 1276.97 519.886C1281.28 507.212 1283.43 494.209 1283.41 480.875C1283.38 466.875 1280.86 453.546 1275.84 440.887C1270.82 428.229 1263.97 417.073 1255.29 407.42C1246.61 397.767 1236.26 390.116 1224.25 384.469C1212.58 378.82 1199.91 376.007 1186.24 376.029C1177.57 376.042 1168.41 377.89 1158.75 381.572C1149.42 384.92 1140.59 389.601 1132.27 395.614C1124.28 401.293 1117.29 408.137 1111.3 416.147C1105.65 423.822 1102.16 431.995 1100.84 440.663L1100.97 520.663C1104.98 529.99 1110 538.649 1116.01 546.64C1122.35 554.63 1129.37 561.619 1137.04 567.606C1145.05 573.26 1153.56 577.747 1162.56 581.066C1171.57 584.385 1180.9 586.037 1190.57 586.022ZM1441.21 615.627C1428.88 615.646 1417.38 613.664 1406.7 609.681C1396.36 605.364 1387.19 599.545 1379.17 592.224C1371.5 584.903 1365.48 576.413 1361.13 566.753C1356.79 556.76 1354.6 546.096 1354.58 534.763C1354.57 523.43 1357.22 512.926 1362.53 503.251C1367.85 493.575 1375.34 485.23 1384.99 478.215C1394.65 471.2 1406.14 465.848 1419.47 462.161C1432.8 458.14 1447.46 456.116 1463.46 456.091C1476.79 456.07 1490.3 457.216 1503.97 459.527C1517.64 461.839 1529.81 465.153 1540.48 469.47L1540.44 445.97C1540.41 422.97 1533.88 404.813 1520.86 391.501C1507.84 377.854 1489.83 371.049 1466.83 371.086C1453.49 371.107 1439.83 373.795 1425.84 379.15C1411.85 384.506 1397.69 392.195 1383.37 402.218L1371.34 379.736C1404.97 357.017 1437.62 345.632 1469.29 345.582C1501.95 345.53 1527.63 354.656 1546.33 372.96C1565.02 391.264 1574.4 416.583 1574.45 448.916L1574.63 566.416C1574.65 575.749 1578.82 580.409 1587.16 580.396L1587.2 610.396C1581.54 611.405 1577.21 611.912 1574.21 611.917C1565.54 611.93 1558.7 609.774 1553.7 605.449C1549.02 601.123 1546.51 595.127 1546.17 587.461L1545.13 566.962C1533.16 582.648 1518.01 594.672 1499.69 603.034C1481.71 611.396 1462.21 615.593 1441.21 615.627ZM1449.17 589.614C1466.84 589.586 1483 586.227 1497.65 579.537C1512.64 572.847 1523.96 563.996 1531.61 552.984C1534.61 549.979 1536.77 546.809 1538.1 543.474C1539.76 539.804 1540.59 536.47 1540.58 533.47L1540.52 490.97C1529.17 486.654 1517.34 483.34 1505 481.026C1493 478.711 1480.66 477.564 1467.99 477.584C1443.99 477.622 1424.5 482.653 1409.52 492.676C1394.53 502.7 1387.05 515.879 1387.08 532.212C1387.09 540.212 1388.6 547.709 1391.62 554.705C1394.96 561.699 1399.3 567.859 1404.64 573.184C1410.32 578.175 1416.99 582.165 1424.66 585.153C1432.33 588.14 1440.5 589.628 1449.17 589.614ZM1629.96 479.328C1629.93 460.995 1633.07 443.657 1639.38 427.314C1645.68 410.97 1654.49 396.79 1665.81 384.772C1677.46 372.42 1691.27 362.732 1707.26 355.706C1723.25 348.681 1740.91 345.153 1760.25 345.123C1784.91 345.084 1806.42 350.717 1824.77 362.021C1843.12 372.992 1856.98 387.97 1866.34 406.955L1833.36 417.507C1826.01 404.186 1815.66 393.869 1802.31 386.556C1789.3 378.91 1774.79 375.1 1758.79 375.125C1745.46 375.146 1732.96 377.832 1721.31 383.184C1709.98 388.535 1699.99 395.885 1691.34 405.232C1683.02 414.245 1676.37 425.089 1671.39 437.763C1666.75 450.437 1664.43 464.274 1664.46 479.274C1664.48 493.941 1667 507.77 1672.02 520.762C1677.04 533.754 1683.89 545.077 1692.58 554.73C1701.26 564.049 1711.27 571.534 1722.61 577.182C1734.29 582.497 1746.62 585.145 1759.62 585.124C1767.96 585.111 1776.12 583.931 1784.12 581.585C1792.45 579.239 1800.11 576.06 1807.1 572.049C1814.1 567.705 1820.09 562.862 1825.08 557.521C1830.07 552.179 1833.56 546.507 1835.55 540.504L1869.07 550.451C1865.42 559.79 1860.1 568.465 1853.11 576.476C1846.12 584.154 1837.8 591.001 1828.14 597.016C1818.82 602.697 1808.33 607.047 1796.66 610.066C1785.34 613.417 1773.51 615.102 1761.17 615.122C1742.17 615.152 1724.67 611.679 1708.66 604.704C1692.64 597.396 1678.8 587.585 1667.11 575.27C1655.42 562.622 1646.23 548.136 1639.54 531.813C1633.18 515.49 1629.99 497.995 1629.96 479.328ZM2032.64 614.693C2013.64 614.723 1996.14 611.251 1980.13 604.276C1964.45 596.967 1950.77 587.156 1939.08 574.841C1927.39 562.193 1918.21 547.707 1911.51 531.384C1905.15 515.061 1901.96 497.566 1901.93 478.899C1901.9 460.566 1905.04 443.394 1911.35 427.384C1917.99 411.041 1926.97 396.86 1938.28 384.842C1949.93 372.49 1963.75 362.802 1979.74 355.776C1995.72 348.418 2013.05 344.724 2031.72 344.694C2050.72 344.664 2068.06 348.304 2083.74 355.612C2099.75 362.587 2113.43 372.232 2124.78 384.548C2136.13 396.863 2144.99 411.016 2151.35 427.006C2157.71 442.996 2160.9 459.991 2160.93 477.991C2160.93 480.657 2160.94 483.324 2160.94 485.991C2160.95 488.657 2160.78 490.491 2160.45 491.491L1937.45 491.843C1938.47 505.842 1941.66 518.837 1947.01 530.828C1952.7 542.486 1959.88 552.641 1968.56 561.294C1977.24 569.947 1987.08 576.765 1998.09 581.748C2009.43 586.396 2021.44 588.711 2034.1 588.691C2042.44 588.678 2050.77 587.498 2059.1 585.151C2067.43 582.805 2075.09 579.626 2082.08 575.615C2089.08 571.604 2095.4 566.761 2101.06 561.085C2106.72 555.076 2111.04 548.569 2114.03 541.565L2143.54 549.518C2139.56 559.191 2133.9 568.033 2126.58 576.045C2119.26 583.723 2110.77 590.57 2101.12 596.585C2091.46 602.267 2080.8 606.617 2069.14 609.636C2057.48 612.987 2045.31 614.673 2032.64 614.693ZM2128.41 465.542C2127.39 451.543 2124.03 438.882 2118.35 427.558C2113 415.899 2105.98 405.911 2097.3 397.591C2088.96 389.271 2079.11 382.786 2067.77 378.137C2056.76 373.488 2044.93 371.174 2032.26 371.194C2019.59 371.213 2007.6 373.566 1996.27 378.25C1984.95 382.935 1974.96 389.451 1966.3 397.798C1957.98 406.144 1951.16 416.155 1945.85 427.83C1940.87 439.504 1937.89 452.176 1936.91 465.844L2128.41 465.542ZM2341.1 614.206C2320.43 614.239 2301.43 609.102 2284.08 598.796C2267.06 588.49 2253.71 575.178 2244.01 558.86L2244.09 609.36L2213.59 609.408L2213.02 244.408L2247.02 244.354L2247.27 403.354C2258.91 385.669 2272.88 371.48 2289.2 360.788C2305.52 349.762 2324.51 344.232 2346.18 344.198C2364.51 344.169 2380.85 347.977 2395.19 355.621C2409.87 363.264 2422.22 373.578 2432.24 386.562C2442.6 399.213 2450.45 413.7 2455.81 430.025C2461.5 446.016 2464.36 462.512 2464.39 479.512C2464.42 497.845 2461.28 515.183 2454.97 531.527C2448.66 547.87 2440.02 562.217 2429.04 574.568C2418.06 586.585 2404.91 596.272 2389.58 603.63C2374.6 610.654 2358.43 614.179 2341.1 614.206ZM2333.05 584.219C2347.39 584.196 2360.38 581.343 2372.04 575.658C2384.03 569.639 2394.19 561.789 2402.5 552.109C2411.15 542.096 2417.8 530.919 2422.45 518.578C2427.43 505.903 2429.91 492.899 2429.89 479.566C2429.87 465.9 2427.51 452.737 2422.83 440.077C2418.47 427.417 2412.12 416.261 2403.77 406.607C2395.76 396.62 2385.91 388.802 2374.24 383.154C2362.89 377.172 2350.39 374.191 2336.72 374.213C2326.39 374.229 2316.73 376.078 2307.73 379.759C2298.74 383.106 2290.41 387.786 2282.75 393.798C2275.1 399.81 2268.27 406.821 2262.29 414.831C2256.3 422.507 2251.31 430.681 2247.33 439.354L2247.45 520.354C2248.8 529.352 2252.31 537.846 2257.99 545.838C2264.01 553.495 2271.02 560.15 2279.02 565.804C2287.37 571.458 2296.21 575.944 2305.55 579.263C2315.22 582.581 2324.39 584.233 2333.05 584.219ZM2522.19 608.921L2521.78 348.421L2555.78 348.367L2556.19 608.867L2522.19 608.921ZM2521.69 293.921L2521.61 243.921L2555.61 243.867L2555.69 293.867L2521.69 293.921ZM2850.07 608.403L2816.07 608.457L2815.84 462.957C2815.79 431.957 2811.09 409.465 2801.74 395.479C2792.71 381.493 2778.7 374.516 2759.7 374.546C2749.7 374.561 2739.71 376.41 2729.71 380.093C2719.72 383.775 2710.39 388.957 2701.74 395.637C2693.41 402.317 2685.93 410.329 2679.28 419.673C2672.62 428.683 2667.8 438.524 2664.82 449.195L2665.07 608.695L2631.07 608.749L2630.66 348.249L2661.66 348.2L2661.76 407.2C2672.39 388.183 2687.53 372.826 2707.18 361.128C2727.16 349.43 2748.82 343.563 2772.16 343.526C2786.49 343.503 2798.66 346.151 2808.67 351.468C2818.68 356.786 2826.69 364.273 2832.7 373.93C2838.72 383.588 2843.07 395.414 2845.76 409.41C2848.45 423.406 2849.81 438.903 2849.83 455.903L2850.07 608.403Z" fill="url(#paint0_linear)"/>
</g>
<g filter="url(#filter1_d)">
<path d="M836.879 713.18C836.623 713.309 836.175 713.565 835.536 713.95C834.96 714.271 834.193 714.593 833.233 714.914C832.338 715.236 831.314 715.525 830.163 715.783C829.011 716.041 827.763 716.171 826.419 716.173C825.075 716.175 823.795 715.985 822.579 715.603C821.426 715.221 820.401 714.646 819.504 713.88C818.607 713.113 817.901 712.186 817.387 711.099C816.874 710.012 816.616 708.732 816.613 707.26L816.554 669.628L809.546 669.639L809.54 665.703L816.548 665.692L816.521 648.604L821.321 648.597L821.348 665.685L832.964 665.666L832.97 669.602L821.354 669.621L821.412 706.101C821.414 707.957 822.057 709.364 823.338 710.322C824.62 711.216 826.06 711.661 827.66 711.659C829.644 711.656 831.34 711.333 832.747 710.691C834.218 709.985 835.113 709.535 835.433 709.343L836.879 713.18ZM884.559 716.465C881.039 716.471 877.774 715.804 874.764 714.465C871.754 713.061 869.127 711.177 866.883 708.813C864.703 706.384 862.971 703.603 861.686 700.469C860.465 697.335 859.852 693.976 859.846 690.392C859.84 686.872 860.443 683.575 861.654 680.501C862.929 677.363 864.653 674.64 866.826 672.333C868.998 669.962 871.555 668.102 874.497 666.753C877.503 665.404 880.734 664.727 884.19 664.722C887.71 664.716 890.975 665.415 893.985 666.818C896.995 668.157 899.59 670.009 901.77 672.374C903.949 674.674 905.65 677.392 906.871 680.526C908.091 683.596 908.705 686.859 908.71 690.315C908.71 690.635 908.711 691.051 908.712 691.563C908.713 692.011 908.681 692.299 908.617 692.427L864.841 692.496C865.038 695.376 865.714 698.063 866.87 700.557C868.026 702.987 869.469 705.097 871.2 706.886C872.995 708.675 875.045 710.08 877.351 711.1C879.656 712.121 882.121 712.629 884.745 712.625C886.473 712.622 888.169 712.395 889.832 711.945C891.495 711.43 893.03 710.756 894.437 709.922C895.908 709.087 897.186 708.093 898.272 706.939C899.422 705.722 900.316 704.408 900.954 702.999L905.18 704.145C904.479 705.938 903.425 707.603 902.02 709.142C900.678 710.616 899.08 711.898 897.226 712.989C895.435 714.08 893.453 714.915 891.278 715.495C889.103 716.138 886.863 716.461 884.559 716.465ZM904.099 688.594C903.903 685.651 903.226 682.964 902.071 680.533C900.979 678.103 899.535 676.025 897.741 674.3C896.01 672.511 893.992 671.138 891.686 670.182C889.381 669.161 886.916 668.653 884.292 668.657C881.668 668.662 879.205 669.178 876.902 670.205C874.6 671.169 872.554 672.548 870.765 674.343C869.039 676.074 867.635 678.188 866.551 680.686C865.531 683.119 864.927 685.776 864.739 688.656L904.099 688.594ZM936.074 665.504L952.235 686.118L953.005 687.461L953.771 686.116L969.77 665.451L975.146 665.442L955.794 690.529L975.129 715.362L969.849 715.371L953.785 694.852L953.015 693.605L952.249 694.854L936.249 715.424L930.969 715.432L950.226 690.537L930.794 665.512L936.074 665.504ZM1025.82 712.882C1025.57 713.011 1025.12 713.267 1024.48 713.652C1023.9 713.973 1023.14 714.294 1022.18 714.616C1021.28 714.937 1020.26 715.227 1019.11 715.485C1017.95 715.743 1016.71 715.873 1015.36 715.875C1014.02 715.877 1012.74 715.687 1011.52 715.305C1010.37 714.923 1009.34 714.348 1008.45 713.582C1007.55 712.815 1006.84 711.888 1006.33 710.801C1005.82 709.714 1005.56 708.434 1005.56 706.962L1005.5 669.33L998.49 669.341L998.483 665.405L1005.49 665.394L1005.46 648.306L1010.26 648.299L1010.29 665.387L1021.91 665.368L1021.91 669.304L1010.3 669.323L1010.36 705.803C1010.36 707.659 1011 709.066 1012.28 710.024C1013.56 710.918 1015 711.363 1016.6 711.361C1018.59 711.358 1020.28 711.035 1021.69 710.393C1023.16 709.686 1024.06 709.237 1024.38 709.044L1025.82 712.882ZM1157.06 716.035C1153.22 716.041 1149.54 715.407 1146.01 714.133C1142.49 712.858 1139.42 710.943 1136.79 708.387L1139.18 705.119C1141.88 707.547 1144.66 709.335 1147.55 710.482C1150.43 711.63 1153.6 712.201 1157.05 712.195C1161.4 712.188 1164.89 711.287 1167.51 709.491C1170.2 707.63 1171.54 705.068 1171.53 701.804C1171.53 700.268 1171.18 698.989 1170.47 697.966C1169.83 696.879 1168.83 695.985 1167.49 695.283C1166.14 694.517 1164.48 693.847 1162.49 693.275C1160.51 692.702 1158.2 692.097 1155.58 691.461C1152.76 690.826 1150.3 690.19 1148.18 689.553C1146.14 688.916 1144.44 688.151 1143.09 687.257C1141.75 686.363 1140.72 685.277 1140.02 683.998C1139.37 682.719 1139.05 681.087 1139.05 679.103C1139.04 676.607 1139.52 674.431 1140.48 672.573C1141.43 670.716 1142.74 669.178 1144.41 667.959C1146.13 666.74 1148.08 665.841 1150.26 665.262C1152.5 664.618 1154.86 664.295 1157.36 664.291C1161.26 664.284 1164.72 664.951 1167.73 666.29C1170.74 667.565 1173.08 669.226 1174.75 671.271L1172.06 673.867C1170.4 671.95 1168.22 670.513 1165.53 669.558C1162.9 668.602 1160.09 668.126 1157.08 668.131C1155.22 668.134 1153.46 668.329 1151.8 668.715C1150.2 669.102 1148.79 669.712 1147.58 670.546C1146.36 671.38 1145.41 672.469 1144.7 673.815C1144 675.096 1143.65 676.632 1143.65 678.424C1143.66 679.896 1143.88 681.08 1144.33 681.975C1144.85 682.87 1145.61 683.637 1146.64 684.276C1147.73 684.914 1149.11 685.488 1150.77 685.997C1152.44 686.442 1154.42 686.951 1156.72 687.524C1159.86 688.287 1162.65 689.018 1165.08 689.718C1167.51 690.419 1169.53 691.279 1171.13 692.301C1172.8 693.322 1174.05 694.536 1174.88 695.943C1175.78 697.35 1176.23 699.141 1176.23 701.317C1176.24 705.797 1174.49 709.384 1170.97 712.077C1167.52 714.707 1162.88 716.026 1157.06 716.035ZM1247.43 714.932L1242.64 714.94L1242.59 687.1C1242.57 674.748 1238.43 668.579 1230.18 668.592C1228.13 668.595 1226.11 668.982 1224.13 669.753C1222.21 670.524 1220.39 671.615 1218.66 673.026C1217 674.436 1215.53 676.103 1214.26 678.025C1212.98 679.883 1212.02 681.9 1211.39 684.077L1211.44 714.989L1206.64 714.997L1206.52 644.917L1211.32 644.909L1211.38 676.973C1213.42 673.066 1216.23 669.958 1219.81 667.648C1223.45 665.338 1227.35 664.18 1231.51 664.174C1234.27 664.169 1236.64 664.677 1238.62 665.698C1240.61 666.719 1242.24 668.189 1243.52 670.107C1244.87 672.024 1245.83 674.359 1246.42 677.11C1247.06 679.797 1247.38 682.837 1247.39 686.229L1247.43 714.932ZM1293.44 715.82C1291.13 715.824 1288.99 715.443 1287 714.678C1285.02 713.849 1283.26 712.764 1281.72 711.422C1280.24 710.017 1279.09 708.387 1278.25 706.532C1277.42 704.613 1277 702.566 1277 700.39C1276.99 698.214 1277.5 696.229 1278.52 694.435C1279.54 692.642 1280.95 691.104 1282.74 689.821C1284.59 688.474 1286.8 687.446 1289.36 686.738C1291.92 685.966 1294.73 685.578 1297.81 685.573C1300.49 685.569 1303.18 685.82 1305.87 686.328C1308.62 686.772 1311.09 687.408 1313.27 688.237L1313.26 683.341C1313.25 678.605 1311.9 674.863 1309.21 672.115C1306.52 669.303 1302.87 667.901 1298.26 667.908C1295.83 667.912 1293.23 668.428 1290.48 669.456C1287.8 670.485 1285.05 671.961 1282.23 673.886L1280.41 670.624C1286.8 666.262 1292.88 664.077 1298.64 664.068C1304.65 664.058 1309.39 665.811 1312.85 669.325C1316.31 672.776 1318.05 677.573 1318.06 683.717L1318.1 708.101C1318.1 709.701 1318.8 710.5 1320.21 710.498L1320.22 714.818C1319.9 714.882 1319.55 714.915 1319.16 714.915C1318.84 714.98 1318.56 715.012 1318.3 715.013C1317.02 715.015 1316 714.6 1315.23 713.77C1314.46 712.875 1314.01 711.819 1313.88 710.604L1313.87 706.476C1311.57 709.487 1308.63 711.796 1305.05 713.402C1301.47 715.007 1297.6 715.813 1293.44 715.82ZM1294.39 711.978C1298.1 711.973 1301.49 711.263 1304.56 709.85C1307.7 708.437 1310.09 706.578 1311.75 704.271C1312.78 702.925 1313.29 701.645 1313.28 700.429L1313.27 691.597C1310.97 690.704 1308.56 690.036 1306.07 689.592C1303.57 689.148 1300.98 688.928 1298.29 688.932C1295.79 688.936 1293.52 689.228 1291.48 689.807C1289.43 690.322 1287.67 691.061 1286.2 692.023C1284.73 692.986 1283.58 694.171 1282.75 695.581C1281.98 696.926 1281.6 698.431 1281.6 700.095C1281.61 701.759 1281.93 703.326 1282.57 704.797C1283.21 706.268 1284.11 707.547 1285.27 708.633C1286.42 709.655 1287.76 710.485 1289.3 711.122C1290.9 711.696 1292.6 711.981 1294.39 711.978ZM1375.45 669.13C1370.97 669.265 1367.04 670.616 1363.65 673.181C1360.33 675.682 1358 679.142 1356.66 683.56L1356.71 714.76L1351.91 714.768L1351.83 664.848L1356.44 664.84L1356.46 677.128C1358.18 673.606 1360.45 670.754 1363.26 668.574C1366.14 666.329 1369.21 665.044 1372.47 664.719C1373.11 664.654 1373.69 664.621 1374.2 664.62C1374.71 664.62 1375.13 664.619 1375.45 664.618L1375.45 669.13ZM1403.83 714.686L1403.75 664.766L1408.55 664.758L1408.63 714.678L1403.83 714.686ZM1403.73 653.438L1403.72 644.606L1408.52 644.598L1408.53 653.43L1403.73 653.438ZM1483.7 714.56L1478.9 714.567L1478.86 686.727C1478.85 680.263 1477.91 675.561 1476.05 672.62C1474.26 669.678 1471.37 668.211 1467.41 668.217C1465.29 668.221 1463.18 668.608 1461.07 669.379C1459.03 670.151 1457.11 671.242 1455.32 672.652C1453.53 674.063 1451.96 675.73 1450.62 677.652C1449.28 679.51 1448.29 681.527 1447.65 683.704L1447.7 714.616L1442.9 714.624L1442.82 664.704L1447.34 664.697L1447.36 676.601C1448.38 674.679 1449.62 672.949 1451.09 671.411C1452.62 669.809 1454.32 668.462 1456.17 667.371C1458.09 666.216 1460.11 665.349 1462.22 664.769C1464.33 664.126 1466.5 663.803 1468.74 663.799C1474.18 663.791 1478.03 665.705 1480.27 669.541C1482.52 673.313 1483.65 678.752 1483.66 685.856L1483.7 714.56ZM1537.58 715.243C1534.12 715.248 1530.95 714.549 1528.07 713.146C1525.19 711.678 1522.69 709.762 1520.57 707.397C1518.52 704.969 1516.88 702.219 1515.66 699.149C1514.51 696.079 1513.93 692.912 1513.92 689.648C1513.92 686.256 1514.45 682.991 1515.54 679.853C1516.68 676.716 1518.28 673.961 1520.32 671.59C1522.37 669.155 1524.8 667.231 1527.61 665.818C1530.49 664.406 1533.66 663.697 1537.11 663.691C1541.46 663.684 1545.24 664.83 1548.45 667.129C1551.71 669.364 1554.47 672.112 1556.71 675.372L1556.7 664.524L1561.11 664.517L1561.19 715.397C1561.2 718.789 1560.56 721.766 1559.29 724.328C1558.01 726.89 1556.29 729.005 1554.11 730.673C1552 732.404 1549.51 733.688 1546.63 734.524C1543.82 735.425 1540.84 735.878 1537.71 735.882C1534.83 735.887 1532.23 735.603 1529.93 735.031C1527.62 734.522 1525.57 733.758 1523.78 732.736C1522.05 731.779 1520.48 730.566 1519.07 729.096C1517.72 727.69 1516.54 726.124 1515.51 724.397L1518.77 722.184C1520.76 725.573 1523.45 728.033 1526.85 729.564C1530.24 731.158 1533.86 731.953 1537.7 731.946C1540.26 731.942 1542.66 731.587 1544.9 730.879C1547.2 730.171 1549.18 729.112 1550.84 727.702C1552.57 726.355 1553.91 724.657 1554.87 722.607C1555.89 720.558 1556.4 718.157 1556.39 715.405L1556.38 704.461C1554.33 707.728 1551.62 710.356 1548.23 712.346C1544.84 714.271 1541.29 715.237 1537.58 715.243ZM1538.72 711.113C1540.83 711.109 1542.88 710.722 1544.86 709.951C1546.91 709.116 1548.73 708.057 1550.33 706.774C1551.99 705.492 1553.34 704.05 1554.36 702.448C1555.44 700.846 1556.11 699.245 1556.37 697.645L1556.34 681.229C1555.57 679.31 1554.54 677.552 1553.26 675.954C1551.98 674.292 1550.5 672.886 1548.84 671.737C1547.23 670.587 1545.47 669.694 1543.55 669.057C1541.7 668.356 1539.81 668.007 1537.89 668.01C1534.88 668.015 1532.19 668.659 1529.83 669.943C1527.46 671.227 1525.45 672.894 1523.79 674.944C1522.19 676.995 1520.94 679.333 1520.05 681.958C1519.22 684.52 1518.81 687.112 1518.82 689.736C1518.82 692.616 1519.34 695.335 1520.37 697.894C1521.39 700.452 1522.81 702.722 1524.6 704.703C1526.4 706.684 1528.51 708.249 1530.94 709.397C1533.38 710.545 1535.97 711.117 1538.72 711.113ZM1641.46 714.311L1641.39 668.327L1634.38 668.338L1634.37 664.402L1641.38 664.391L1641.38 662.759C1641.37 656.615 1642.61 651.845 1645.1 648.449C1647.59 644.989 1651.05 643.255 1655.46 643.249C1657.38 643.245 1659.24 643.531 1661.03 644.104C1662.82 644.677 1664.3 645.443 1665.45 646.401L1663.73 649.859C1662.83 649.157 1661.71 648.583 1660.36 648.137C1659.08 647.691 1657.74 647.469 1656.33 647.471C1653.07 647.476 1650.54 648.792 1648.75 651.419C1647.03 653.982 1646.17 657.727 1646.18 662.655L1646.18 664.383L1660.39 664.361L1660.4 668.297L1646.19 668.319L1646.26 714.303L1641.46 714.311ZM1707.41 715.167C1703.89 715.172 1700.63 714.505 1697.62 713.166C1694.67 711.763 1692.11 709.879 1689.93 707.514C1687.75 705.15 1686.05 702.4 1684.83 699.266C1683.61 696.132 1682.99 692.837 1682.99 689.381C1682.98 685.861 1683.59 682.532 1684.8 679.394C1686.07 676.256 1687.8 673.502 1689.97 671.13C1692.14 668.759 1694.7 666.899 1697.64 665.55C1700.65 664.137 1703.88 663.428 1707.33 663.423C1710.79 663.417 1713.99 664.116 1716.94 665.52C1719.88 666.859 1722.44 668.711 1724.62 671.075C1726.87 673.44 1728.6 676.189 1729.82 679.323C1731.11 682.457 1731.75 685.784 1731.76 689.304C1731.76 692.76 1731.13 696.057 1729.85 699.195C1728.64 702.333 1726.95 705.088 1724.78 707.459C1722.61 709.831 1720.02 711.723 1717.01 713.135C1714.07 714.484 1710.87 715.161 1707.41 715.167ZM1687.79 689.566C1687.79 692.51 1688.31 695.293 1689.34 697.915C1690.37 700.474 1691.75 702.711 1693.48 704.629C1695.27 706.546 1697.35 708.078 1699.72 709.227C1702.09 710.311 1704.62 710.851 1707.31 710.847C1710 710.843 1712.53 710.295 1714.89 709.203C1717.26 708.047 1719.34 706.476 1721.13 704.489C1722.91 702.502 1724.32 700.228 1725.34 697.666C1726.36 695.041 1726.87 692.224 1726.86 689.216C1726.86 686.272 1726.34 683.521 1725.31 680.962C1724.28 678.34 1722.87 676.07 1721.08 674.153C1719.28 672.172 1717.2 670.607 1714.83 669.459C1712.52 668.31 1710.03 667.738 1707.34 667.743C1704.65 667.747 1702.12 668.327 1699.76 669.483C1697.39 670.638 1695.31 672.21 1693.53 674.196C1691.8 676.183 1690.4 678.521 1689.31 681.211C1688.29 683.837 1687.78 686.622 1687.79 689.566ZM1786.04 668.482C1781.56 668.618 1777.63 669.968 1774.24 672.533C1770.92 675.034 1768.58 678.494 1767.25 682.912L1767.3 714.112L1762.5 714.12L1762.42 664.2L1767.03 664.192L1767.05 676.48C1768.77 672.958 1771.04 670.106 1773.85 667.926C1776.72 665.681 1779.79 664.396 1783.06 664.071C1783.7 664.006 1784.27 663.973 1784.79 663.972C1785.3 663.972 1785.71 663.971 1786.03 663.97L1786.04 668.482ZM1878.2 711.537C1877.94 711.666 1877.49 711.922 1876.85 712.307C1876.28 712.628 1875.51 712.949 1874.55 713.271C1873.66 713.592 1872.63 713.882 1871.48 714.14C1870.33 714.398 1869.08 714.527 1867.74 714.53C1866.39 714.532 1865.11 714.342 1863.9 713.96C1862.74 713.577 1861.72 713.003 1860.82 712.237C1859.92 711.47 1859.22 710.543 1858.7 709.456C1858.19 708.369 1857.93 707.089 1857.93 705.617L1857.87 667.985L1850.86 667.996L1850.86 664.06L1857.87 664.049L1857.84 646.961L1862.64 646.954L1862.67 664.042L1874.28 664.023L1874.29 667.959L1862.67 667.978L1862.73 704.458C1862.73 706.314 1863.37 707.72 1864.66 708.678C1865.94 709.572 1867.38 710.018 1868.98 710.016C1870.96 710.013 1872.66 709.69 1874.06 709.048C1875.54 708.341 1876.43 707.892 1876.75 707.699L1878.2 711.537ZM1946.68 713.829L1941.88 713.837L1941.83 685.997C1941.81 673.645 1937.68 667.475 1929.42 667.488C1927.37 667.491 1925.36 667.879 1923.37 668.65C1921.46 669.421 1919.63 670.512 1917.91 671.922C1916.25 673.333 1914.78 674.999 1913.5 676.921C1912.22 678.779 1911.27 680.797 1910.63 682.974L1910.68 713.886L1905.88 713.893L1905.77 643.814L1910.57 643.806L1910.62 675.87C1912.66 671.963 1915.47 668.854 1919.05 666.545C1922.7 664.235 1926.6 663.077 1930.76 663.07C1933.51 663.066 1935.88 663.574 1937.86 664.595C1939.85 665.616 1941.48 667.085 1942.77 669.003C1944.11 670.921 1945.08 673.256 1945.66 676.007C1946.3 678.694 1946.63 681.733 1946.63 685.125L1946.68 713.829ZM2001.61 714.702C1998.09 714.708 1994.82 714.041 1991.81 712.702C1988.8 711.299 1986.18 709.415 1983.93 707.05C1981.75 704.622 1980.02 701.84 1978.73 698.706C1977.51 695.572 1976.9 692.213 1976.89 688.629C1976.89 685.109 1977.49 681.812 1978.7 678.738C1979.98 675.6 1981.7 672.878 1983.87 670.57C1986.05 668.199 1988.6 666.339 1991.55 664.99C1994.55 663.641 1997.78 662.964 2001.24 662.959C2004.76 662.953 2008.02 663.652 2011.03 665.055C2014.04 666.395 2016.64 668.247 2018.82 670.611C2021 672.912 2022.7 675.629 2023.92 678.763C2025.14 681.833 2025.75 685.096 2025.76 688.552C2025.76 688.872 2025.76 689.288 2025.76 689.8C2025.76 690.248 2025.73 690.536 2025.67 690.664L1981.89 690.733C1982.09 693.613 1982.76 696.3 1983.92 698.794C1985.07 701.224 1986.52 703.334 1988.25 705.123C1990.04 706.913 1992.09 708.317 1994.4 709.338C1996.7 710.358 1999.17 710.866 2001.79 710.862C2003.52 710.859 2005.22 710.633 2006.88 710.182C2008.54 709.667 2010.08 708.993 2011.49 708.159C2012.96 707.324 2014.23 706.33 2015.32 705.177C2016.47 703.959 2017.36 702.645 2018 701.236L2022.23 702.382C2021.53 704.175 2020.47 705.841 2019.07 707.379C2017.73 708.853 2016.13 710.135 2014.27 711.226C2012.48 712.317 2010.5 713.152 2008.33 713.732C2006.15 714.375 2003.91 714.699 2001.61 714.702ZM2021.15 686.831C2020.95 683.888 2020.27 681.201 2019.12 678.771C2018.03 676.34 2016.58 674.263 2014.79 672.538C2013.06 670.748 2011.04 669.375 2008.73 668.419C2006.43 667.399 2003.96 666.891 2001.34 666.895C1998.72 666.899 1996.25 667.415 1993.95 668.442C1991.65 669.406 1989.6 670.785 1987.81 672.58C1986.09 674.311 1984.68 676.425 1983.6 678.923C1982.58 681.356 1981.98 684.013 1981.79 686.894L2021.15 686.831ZM2101.62 713.585L2101.55 667.601L2094.54 667.612L2094.54 663.676L2101.54 663.665L2101.54 662.033C2101.53 655.889 2102.77 651.119 2105.26 647.723C2107.75 644.263 2111.21 642.529 2115.62 642.522C2117.54 642.519 2119.4 642.804 2121.19 643.378C2122.99 643.951 2124.46 644.716 2125.61 645.675L2123.89 649.133C2122.99 648.431 2121.87 647.856 2120.53 647.411C2119.25 646.965 2117.9 646.743 2116.49 646.745C2113.23 646.75 2110.7 648.066 2108.92 650.693C2107.19 653.256 2106.33 657.001 2106.34 661.929L2106.34 663.657L2120.55 663.635L2120.56 667.571L2106.35 667.593L2106.42 713.577L2101.62 713.585ZM2149.18 713.509L2149.1 663.59L2153.9 663.582L2153.98 713.502L2149.18 713.509ZM2149.08 652.262L2149.07 643.43L2153.87 643.422L2153.88 652.254L2149.08 652.262ZM2229.05 713.383L2224.25 713.391L2224.21 685.551C2224.2 679.087 2223.26 674.385 2221.4 671.443C2219.61 668.502 2216.72 667.035 2212.76 667.041C2210.64 667.044 2208.53 667.432 2206.42 668.203C2204.37 668.974 2202.46 670.065 2200.67 671.476C2198.88 672.887 2197.31 674.553 2195.97 676.476C2194.63 678.334 2193.64 680.351 2193 682.528L2193.05 713.44L2188.25 713.448L2188.17 663.528L2192.69 663.521L2192.7 675.425C2193.73 673.503 2194.97 671.773 2196.44 670.235C2197.97 668.632 2199.67 667.286 2201.52 666.195C2203.44 665.04 2205.45 664.173 2207.57 663.593C2209.68 662.95 2211.85 662.627 2214.09 662.623C2219.53 662.614 2223.38 664.528 2225.62 668.365C2227.87 672.137 2229 677.575 2229.01 684.679L2229.05 713.383ZM2275.05 714.271C2272.75 714.274 2270.61 713.894 2268.62 713.129C2266.64 712.3 2264.87 711.215 2263.34 709.873C2261.86 708.468 2260.71 706.837 2259.87 704.983C2259.04 703.064 2258.62 701.017 2258.61 698.841C2258.61 696.665 2259.12 694.68 2260.14 692.886C2261.16 691.093 2262.57 689.555 2264.36 688.272C2266.21 686.925 2268.42 685.897 2270.98 685.189C2273.54 684.417 2276.35 684.029 2279.42 684.024C2282.11 684.02 2284.8 684.271 2287.49 684.779C2290.24 685.223 2292.71 685.859 2294.88 686.688L2294.88 681.792C2294.87 677.056 2293.52 673.314 2290.83 670.566C2288.13 667.754 2284.48 666.352 2279.87 666.359C2277.44 666.363 2274.85 666.879 2272.1 667.907C2269.41 668.936 2266.67 670.412 2263.85 672.336L2262.02 669.075C2268.42 664.713 2274.49 662.528 2280.25 662.519C2286.27 662.509 2291.01 664.262 2294.47 667.776C2297.93 671.227 2299.67 676.024 2299.68 682.168L2299.71 706.552C2299.72 708.152 2300.42 708.951 2301.83 708.949L2301.84 713.269C2301.52 713.333 2301.17 713.366 2300.78 713.366C2300.46 713.431 2300.17 713.463 2299.92 713.464C2298.64 713.466 2297.61 713.051 2296.84 712.22C2296.07 711.326 2295.62 710.27 2295.49 709.055L2295.49 704.927C2293.19 707.938 2290.25 710.247 2286.67 711.853C2283.09 713.458 2279.21 714.264 2275.05 714.271ZM2276.01 710.429C2279.72 710.423 2283.11 709.714 2286.18 708.301C2289.31 706.888 2291.71 705.029 2293.37 702.722C2294.39 701.376 2294.9 700.096 2294.9 698.88L2294.89 690.048C2292.58 689.155 2290.18 688.487 2287.69 688.043C2285.19 687.599 2282.6 687.379 2279.91 687.383C2277.41 687.387 2275.14 687.679 2273.09 688.258C2271.05 688.773 2269.29 689.512 2267.82 690.474C2266.35 691.437 2265.2 692.622 2264.37 694.032C2263.6 695.377 2263.22 696.882 2263.22 698.546C2263.22 700.21 2263.55 701.777 2264.19 703.248C2264.83 704.719 2265.73 705.998 2266.88 707.084C2268.04 708.106 2269.38 708.936 2270.92 709.573C2272.52 710.147 2274.22 710.432 2276.01 710.429ZM2333.8 643.138L2338.7 643.13L2338.79 703.322C2338.79 705.178 2339.31 706.649 2340.33 707.736C2341.42 708.822 2342.9 709.364 2344.75 709.361C2345.46 709.36 2346.29 709.294 2347.25 709.165C2348.27 708.971 2349.2 708.714 2350.03 708.393L2351 712.231C2349.91 712.681 2348.57 713.035 2346.97 713.293C2345.37 713.616 2343.99 713.778 2342.84 713.78C2340.15 713.784 2337.98 712.988 2336.31 711.39C2334.71 709.729 2333.9 707.522 2333.9 704.77L2333.8 643.138ZM2420.64 713.081L2420.56 667.097L2413.55 667.108L2413.55 663.172L2420.56 663.161L2420.55 661.529C2420.54 655.385 2421.78 650.615 2424.28 647.219C2426.77 643.759 2430.22 642.026 2434.64 642.019C2436.56 642.016 2438.41 642.301 2440.2 642.874C2442 643.447 2443.47 644.213 2444.62 645.171L2442.9 648.63C2442 647.927 2440.88 647.353 2439.54 646.907C2438.26 646.461 2436.91 646.239 2435.51 646.242C2432.24 646.247 2429.72 647.563 2427.93 650.19C2426.2 652.752 2425.35 656.498 2425.35 661.426L2425.36 663.154L2439.56 663.131L2439.57 667.067L2425.36 667.09L2425.44 713.074L2420.64 713.081ZM2491.73 667.369C2487.25 667.504 2483.32 668.854 2479.93 671.419C2476.61 673.921 2474.28 677.38 2472.94 681.799L2472.99 712.998L2468.19 713.006L2468.11 663.086L2472.72 663.079L2472.74 675.367C2474.46 671.844 2476.73 668.993 2479.54 666.812C2482.42 664.568 2485.49 663.283 2488.75 662.958C2489.39 662.893 2489.97 662.86 2490.48 662.859C2490.99 662.858 2491.41 662.857 2491.73 662.857L2491.73 667.369ZM2538.51 713.855C2534.99 713.861 2531.72 713.194 2528.71 711.855C2525.77 710.451 2523.2 708.567 2521.02 706.203C2518.84 703.838 2517.14 701.089 2515.92 697.955C2514.7 694.821 2514.09 691.526 2514.08 688.07C2514.08 684.55 2514.68 681.221 2515.89 678.083C2517.17 674.945 2518.89 672.19 2521.06 669.819C2523.23 667.447 2525.79 665.587 2528.73 664.238C2531.74 662.826 2534.97 662.117 2538.42 662.111C2541.88 662.106 2545.08 662.805 2548.03 664.208C2550.97 665.547 2553.54 667.399 2555.72 669.764C2557.96 672.128 2559.69 674.878 2560.91 678.012C2562.2 681.146 2562.84 684.473 2562.85 687.993C2562.86 691.449 2562.22 694.746 2560.95 697.884C2559.73 701.022 2558.04 703.776 2555.87 706.148C2553.7 708.519 2551.11 710.411 2548.1 711.824C2545.16 713.173 2541.96 713.85 2538.51 713.855ZM2518.88 688.254C2518.89 691.198 2519.4 693.981 2520.43 696.604C2521.46 699.162 2522.84 701.4 2524.57 703.317C2526.37 705.234 2528.45 706.767 2530.82 707.915C2533.19 708.999 2535.72 709.54 2538.4 709.535C2541.09 709.531 2543.62 708.983 2545.99 707.891C2548.35 706.736 2550.43 705.164 2552.22 703.177C2554.01 701.191 2555.41 698.916 2556.43 696.355C2557.45 693.729 2557.96 690.912 2557.95 687.904C2557.95 684.96 2557.43 682.209 2556.4 679.651C2555.38 677.028 2553.96 674.759 2552.17 672.841C2550.37 670.86 2548.29 669.296 2545.92 668.147C2543.62 666.999 2541.12 666.427 2538.43 666.431C2535.74 666.435 2533.22 667.015 2530.85 668.171C2528.48 669.327 2526.41 670.898 2524.62 672.885C2522.89 674.872 2521.49 677.21 2520.41 679.9C2519.39 682.525 2518.88 685.31 2518.88 688.254ZM2634.39 712.744L2629.59 712.751L2629.55 684.911C2629.54 678.447 2628.6 673.745 2626.74 670.804C2624.94 667.863 2622.06 666.395 2618.09 666.401C2615.98 666.405 2613.87 666.792 2611.76 667.563C2609.71 668.335 2607.79 669.426 2606 670.837C2604.21 672.247 2602.65 673.914 2601.31 675.836C2599.97 677.694 2598.98 679.712 2598.34 681.889L2598.39 712.801L2593.59 712.808L2593.51 662.888L2598.02 662.881L2598.04 674.785C2599.06 672.863 2600.31 671.134 2601.78 669.595C2603.31 667.993 2605 666.646 2606.86 665.555C2608.78 664.4 2610.79 663.533 2612.9 662.954C2615.01 662.31 2617.19 661.987 2619.43 661.983C2624.87 661.975 2628.71 663.889 2630.96 667.725C2633.2 671.498 2634.33 676.936 2634.34 684.04L2634.39 712.744ZM2689.9 710.256C2689.65 710.385 2689.2 710.641 2688.56 711.026C2687.98 711.347 2687.22 711.668 2686.26 711.99C2685.36 712.311 2684.34 712.601 2683.19 712.859C2682.03 713.117 2680.79 713.247 2679.44 713.249C2678.1 713.251 2676.82 713.061 2675.6 712.679C2674.45 712.297 2673.42 711.722 2672.53 710.956C2671.63 710.189 2670.92 709.262 2670.41 708.175C2669.9 707.088 2669.64 705.808 2669.64 704.336L2669.58 666.704L2662.57 666.715L2662.56 662.779L2669.57 662.768L2669.54 645.68L2674.34 645.673L2674.37 662.761L2685.99 662.742L2685.99 666.678L2674.38 666.697L2674.43 703.177C2674.44 705.033 2675.08 706.44 2676.36 707.398C2677.64 708.292 2679.08 708.737 2680.68 708.735C2682.67 708.732 2684.36 708.409 2685.77 707.767C2687.24 707.06 2688.14 706.611 2688.46 706.418L2689.9 710.256ZM2717.58 712.613L2717.5 662.693L2722.3 662.685L2722.38 712.605L2717.58 712.613ZM2717.49 651.365L2717.47 642.533L2722.27 642.525L2722.29 651.357L2717.49 651.365ZM2777.88 713.477C2774.36 713.483 2771.09 712.816 2768.08 711.477C2765.07 710.074 2762.44 708.19 2760.2 705.825C2758.02 703.397 2756.29 700.615 2755 697.481C2753.78 694.347 2753.17 690.988 2753.16 687.404C2753.16 683.884 2753.76 680.587 2754.97 677.513C2756.25 674.375 2757.97 671.653 2760.14 669.345C2762.31 666.974 2764.87 665.114 2767.81 663.765C2770.82 662.416 2774.05 661.739 2777.51 661.734C2781.03 661.728 2784.29 662.427 2787.3 663.83C2790.31 665.17 2792.91 667.022 2795.09 669.386C2797.27 671.687 2798.97 674.404 2800.19 677.538C2801.41 680.608 2802.02 683.871 2802.03 687.327C2802.03 687.647 2802.03 688.063 2802.03 688.575C2802.03 689.023 2802 689.311 2801.93 689.439L2758.16 689.508C2758.35 692.388 2759.03 695.075 2760.19 697.569C2761.34 699.999 2762.79 702.109 2764.52 703.898C2766.31 705.688 2768.36 707.092 2770.67 708.113C2772.97 709.133 2775.44 709.641 2778.06 709.637C2779.79 709.634 2781.49 709.408 2783.15 708.957C2784.81 708.442 2786.35 707.768 2787.75 706.934C2789.22 706.099 2790.5 705.105 2791.59 703.952C2792.74 702.734 2793.63 701.42 2794.27 700.011L2798.5 701.157C2797.8 702.95 2796.74 704.616 2795.34 706.154C2793.99 707.628 2792.4 708.91 2790.54 710.001C2788.75 711.092 2786.77 711.927 2784.59 712.507C2782.42 713.15 2780.18 713.474 2777.88 713.477ZM2797.42 685.606C2797.22 682.663 2796.54 679.976 2795.39 677.546C2794.3 675.115 2792.85 673.038 2791.06 671.313C2789.33 669.523 2787.31 668.15 2785 667.194C2782.7 666.174 2780.23 665.666 2777.61 665.67C2774.98 665.674 2772.52 666.19 2770.22 667.217C2767.92 668.181 2765.87 669.56 2764.08 671.355C2762.36 673.086 2760.95 675.2 2759.87 677.698C2758.85 680.131 2758.24 682.788 2758.06 685.669L2797.42 685.606ZM2855.37 666.795C2850.89 666.93 2846.96 668.28 2843.57 670.846C2840.25 673.347 2837.91 676.807 2836.58 681.225L2836.63 712.425L2831.83 712.432L2831.75 662.512L2836.36 662.505L2836.38 674.793C2838.1 671.27 2840.37 668.419 2843.18 666.238C2846.05 663.994 2849.12 662.709 2852.39 662.384C2853.03 662.319 2853.6 662.286 2854.12 662.285C2854.63 662.284 2855.04 662.284 2855.36 662.283L2855.37 666.795Z" fill="url(#paint1_linear)"/>
</g>
</g>
<defs>
<filter id="filter0_d" x="786.405" y="243.868" width="2063.67" height="487.849" filterUnits="userSpaceOnUse" color-interpolation-filters="sRGB">
<feFlood flood-opacity="0" result="BackgroundImageFix"/>
<feColorMatrix in="SourceAlpha" type="matrix" values="0 0 0 0 0 0 0 0 0 0 0 0 0 0 0 0 0 0 127 0"/>
<feOffset dx="-10" dy="10"/>
<feGaussianBlur stdDeviation="2"/>
<feColorMatrix type="matrix" values="0 0 0 0 0 0 0 0 0 0 0 0 0 0 0 0 0 0 0.25 0"/>
<feBlend mode="normal" in2="BackgroundImageFix" result="effect1_dropShadow"/>
<feBlend mode="normal" in="SourceGraphic" in2="effect1_dropShadow" result="shape"/>
</filter>
<filter id="filter1_d" x="799.54" y="642.019" width="2055.83" height="102.864" filterUnits="userSpaceOnUse" color-interpolation-filters="sRGB">
<feFlood flood-opacity="0" result="BackgroundImageFix"/>
<feColorMatrix in="SourceAlpha" type="matrix" values="0 0 0 0 0 0 0 0 0 0 0 0 0 0 0 0 0 0 127 0"/>
<feOffset dx="-6" dy="5"/>
<feGaussianBlur stdDeviation="2"/>
<feColorMatrix type="matrix" values="0 0 0 0 0 0 0 0 0 0 0 0 0 0 0 0 0 0 0.25 0"/>
<feBlend mode="normal" in2="BackgroundImageFix" result="effect1_dropShadow"/>
<feBlend mode="normal" in="SourceGraphic" in2="effect1_dropShadow" result="shape"/>
</filter>
<linearGradient id="paint0_linear" x1="899.712" y1="109.426" x2="1800.36" y2="775.396" gradientUnits="userSpaceOnUse">
<stop stop-color="white"/>
<stop offset="1" stop-color="white"/>
</linearGradient>
<linearGradient id="paint1_linear" x1="1831.98" y1="624.01" x2="1832.16" y2="737.01" gradientUnits="userSpaceOnUse">
<stop stop-color="white"/>
<stop offset="1" stop-color="white"/>
</linearGradient>
<clipPath id="clip0">
<rect width="3105" height="860" fill="white" transform="translate(0 4.8999) rotate(-0.0904159)"/>
</clipPath>
<clipPath id="clip1">
<rect width="349.743" height="312.645" fill="white" transform="translate(291.81 513.794) rotate(-0.0904159)"/>
</clipPath>
</defs>
</svg>
