<svg width="1440" height="692" viewBox="0 0 1440 692" fill="none" xmlns="http://www.w3.org/2000/svg">
<g clip-path="url(#clip0)">
<rect width="1440" height="692" fill="url(#paint0_linear)"/>
<path d="M1137.96 -113C1063.74 273.37 1869.66 326.83 1869.66 1021" stroke="white" stroke-width="70"/>
<mask id="mask0" mask-type="alpha" maskUnits="userSpaceOnUse" x="42" y="244" width="410" height="420">
<path d="M247.644 645.27C246.948 654.232 255.174 662.147 266.043 662.936C276.885 663.726 286.281 657.111 286.976 648.142C287.671 639.173 279.446 631.272 268.59 630.469C257.735 629.673 248.353 636.307 247.644 645.27Z" fill="#787878"/>
<path d="M120.353 586.373C109.462 586.373 100.632 579.081 100.632 570.086C100.632 561.091 109.462 553.799 120.353 553.799C131.245 553.799 140.075 561.091 140.075 570.086C140.075 579.081 131.245 586.373 120.353 586.373Z" fill="#787878"/>
<path d="M355.392 559.757C360.912 567.021 372.497 567.89 381.287 561.687C390.085 555.511 392.755 544.598 387.235 537.347C381.728 530.069 370.136 529.2 361.353 535.403C352.556 541.579 349.899 552.499 355.392 559.757Z" fill="#787878"/>
<path d="M252.861 642.065C253.095 647.114 262.698 651.108 267.943 650.895C273.195 650.676 282.426 646.484 282.199 641.422L268.693 456.385C268.439 451.336 263.992 447.422 258.74 447.641C253.515 447.853 249.454 452.139 249.681 457.187L252.861 642.065Z" fill="#A7A6A7"/>
<path d="M111.474 558.563C107.722 561.594 113.725 571.638 116.863 575.26C120.023 578.876 127.161 581.138 130.933 578.113L261.858 462.508C265.637 459.483 266.112 454.069 262.973 450.467C259.828 446.852 254.231 446.367 250.493 449.392L111.515 558.563" fill="#A7A6A7"/>
<path d="M360.341 554.476C363.232 556.791 374.294 550.403 376.696 547.59C379.105 544.79 379.863 539.257 376.965 536.929L269.134 453.499C266.229 451.17 261.906 451.568 259.504 454.381C257.102 457.194 257.515 461.334 260.433 463.662L360.341 554.476Z" fill="#A7A6A7"/>
<path d="M254.562 460.372C242.678 460.372 233.044 451.954 233.044 441.571C233.044 431.187 242.678 422.77 254.562 422.77C266.446 422.77 276.08 431.187 276.08 441.571C276.08 451.954 266.446 460.372 254.562 460.372Z" fill="#959595"/>
<path d="M50.8303 460.505C42.5769 464.883 39.5826 474.861 44.1119 482.835L58.0167 507.102C62.546 515.043 72.9195 517.956 81.1729 513.577L443.15 354.293C451.411 349.915 454.426 339.917 449.869 331.976L404.458 252.514C399.908 244.559 389.541 241.66 381.302 246.045L50.8234 460.524" fill="#D1D2D3"/>
<path d="M47.0231 487.213C51.5525 495.154 61.926 498.067 70.1794 493.688L432.157 334.404C439.371 330.557 442.572 322.456 440.231 315.159L449.875 332.049C454.432 339.99 451.417 350.001 443.157 354.366L81.1861 513.65C72.9327 518.035 62.5593 515.129 58.0299 507.182L44.1252 482.908C43.5607 481.906 43.1133 480.858 42.7829 479.796L47.0094 487.207" fill="#BEC0C0"/>
<path d="M58.8147 473.05L74.9221 501.264C77.7581 506.233 82.3563 509.597 87.3676 510.923L81.2206 513.637C72.981 518.022 62.5937 515.116 58.0643 507.169L44.1596 482.895C39.6302 474.927 42.6246 464.943 50.8711 460.564L57.5343 456.226C55.3866 461.327 55.6413 467.557 58.794 473.05" fill="#A7A6A7"/>
<path d="M242.88 389.666C234.668 375.303 228.9 360.762 225.534 347.122L239.087 338.319C241.366 352.316 246.886 367.827 255.642 383.138C264.914 399.372 276.362 412.826 288.139 422.266L273.278 428.787C262.244 418.445 251.712 405.143 242.88 389.666Z" fill="#A7A6A7"/>
</mask>
<g mask="url(#mask0)">
<rect x="-105" y="-147" width="1682" height="1458" fill="white"/>
</g>
</g>
<defs>
<linearGradient id="paint0_linear" x1="1120" y1="659.9" x2="-14.2586" y2="-651.955" gradientUnits="userSpaceOnUse">
<stop stop-color="#E44C4C"/>
<stop offset="1" stop-color="#F207B0" stop-opacity="0.93"/>
</linearGradient>
<clipPath id="clip0">
<rect width="1440" height="692" fill="white"/>
</clipPath>
</defs>
</svg>
