<svg width="2809" height="874" viewBox="0 0 2809 874" fill="none" xmlns="http://www.w3.org/2000/svg">
<ellipse cx="360" cy="573" rx="266" ry="264" fill="url(#paint0_linear)"/>
<path d="M460.879 259.599C505.093 468.896 25 497.855 25 873.888" stroke="white" stroke-width="50"/>
<mask id="mask0" mask-type="alpha" maskUnits="userSpaceOnUse" x="219" y="551" width="350" height="313">
<g clip-path="url(#clip0)">
<path d="M391.899 850.859C392.451 857.459 385.921 863.287 377.292 863.868C368.685 864.45 361.226 859.579 360.674 852.975C360.122 846.37 366.652 840.552 375.27 839.961C383.888 839.375 391.336 844.26 391.899 850.859Z" fill="#787878"/>
<path d="M492.953 807.49C501.6 807.49 508.609 802.12 508.609 795.497C508.609 788.873 501.6 783.504 492.953 783.504C484.306 783.504 477.297 788.873 477.297 795.497C477.297 802.12 484.306 807.49 492.953 807.49Z" fill="#787878"/>
<path d="M306.36 787.891C301.977 793.24 292.78 793.88 285.801 789.312C278.818 784.764 276.697 776.728 281.08 771.389C285.452 766.03 294.654 765.39 301.627 769.957C308.611 774.505 310.721 782.546 306.36 787.891Z" fill="#787878"/>
<path d="M387.757 848.499C387.571 852.217 379.948 855.158 375.784 855.001C371.614 854.84 364.286 851.753 364.466 848.025L375.188 711.771C375.39 708.053 378.92 705.171 383.09 705.332C387.238 705.488 390.462 708.644 390.282 712.362L387.757 848.499Z" fill="#A7A6A7"/>
<path d="M500.002 787.011C502.981 789.243 498.215 796.639 495.723 799.307C493.215 801.969 487.548 803.635 484.554 801.407L380.614 716.28C377.614 714.052 377.237 710.066 379.729 707.413C382.227 704.751 386.669 704.394 389.637 706.622L499.97 787.011" fill="#A7A6A7"/>
<path d="M302.431 784.002C300.135 785.706 291.354 781.002 289.446 778.931C287.534 776.869 286.933 772.795 289.233 771.08L374.838 709.646C377.144 707.931 380.576 708.224 382.483 710.295C384.391 712.367 384.063 715.415 381.746 717.13L302.431 784.002Z" fill="#A7A6A7"/>
<path d="M386.407 714.707C395.842 714.707 403.49 708.508 403.49 700.862C403.49 693.216 395.842 687.018 386.407 687.018C376.973 687.018 369.324 693.216 369.324 700.862C369.324 708.508 376.973 714.707 386.407 714.707Z" fill="#959595"/>
<path d="M548.147 714.805C554.699 718.029 557.076 725.376 553.48 731.248L542.441 749.118C538.846 754.965 530.61 757.11 524.058 753.885L236.69 636.594C230.132 633.37 227.739 626.008 231.356 620.161L267.407 561.647C271.019 555.79 279.249 553.655 285.791 556.885L548.152 714.819" fill="#D1D2D3"/>
<path d="M551.169 734.472C547.573 740.32 539.337 742.464 532.785 739.24L245.417 621.949C239.69 619.116 237.149 613.151 239.007 607.777L231.351 620.215C227.733 626.062 230.127 633.434 236.685 636.648L524.047 753.939C530.599 757.168 538.835 755.028 542.431 749.176L553.469 731.302C553.917 730.564 554.273 729.792 554.535 729.011L551.18 734.467" fill="#BEC0C0"/>
<path d="M541.808 724.042L529.02 744.819C526.769 748.478 523.118 750.954 519.14 751.931L524.02 753.929C530.561 757.158 538.807 755.019 542.403 749.166L553.442 731.292C557.038 725.425 554.661 718.073 548.114 714.849L542.824 711.654C544.529 715.41 544.327 719.998 541.824 724.042" fill="#A7A6A7"/>
<path d="M395.681 662.642C402.2 652.065 406.78 641.357 409.452 631.314L398.692 624.831C396.883 635.139 392.5 646.56 385.549 657.835C378.188 669.789 369.1 679.695 359.75 686.647L371.548 691.449C380.308 683.833 388.669 674.039 395.681 662.642Z" fill="#A7A6A7"/>
</g>
</mask>
<g mask="url(#mask0)">
<rect x="78.6838" y="134.67" width="526.74" height="813.829" fill="white"/>
</g>
<g filter="url(#filter0_d)">
<path d="M834 648C812.667 648 792.833 644.5 774.5 637.5C756.5 630.167 740.667 619.5 727 605.5L741 581.5C755.667 595.167 770.333 605.167 785 611.5C800 617.5 815.833 620.5 832.5 620.5C852.5 620.5 868.833 616.5 881.5 608.5C894.5 600.167 901 588.333 901 573C901 562.667 897.833 554.833 891.5 549.5C885.5 543.833 876.667 539.333 865 536C853.667 532.667 840 528.833 824 524.5C806 519.5 790.833 514.333 778.5 509C766.5 503.333 757.333 496.333 751 488C745 479.333 742 468.167 742 454.5C742 437.833 746.167 423.833 754.5 412.5C763.167 401.167 774.833 392.667 789.5 387C804.5 381 821.167 378 839.5 378C859.5 378 877.167 381.167 892.5 387.5C907.833 393.833 920.333 402.667 930 414L913.5 437C904.5 426.333 893.333 418.5 880 413.5C867 408.167 852.833 405.5 837.5 405.5C826.833 405.5 816.667 407 807 410C797.333 412.667 789.333 417.333 783 424C777 430.333 774 439.167 774 450.5C774 464.5 779.167 474.167 789.5 479.5C799.833 484.833 815.5 490.5 836.5 496.5C856.167 501.833 873.333 507.167 888 512.5C902.667 517.833 914 525 922 534C930 542.667 934 554.833 934 570.5C934 594.833 924.833 613.833 906.5 627.5C888.167 641.167 864 648 834 648ZM1123.2 648C1101.53 648 1082.03 642.333 1064.7 631C1047.7 619.667 1034.2 605.667 1024.2 589V749.5H990.199V382.5H1020.7V433C1031.03 416.667 1044.7 403.5 1061.7 393.5C1079.03 383.167 1097.7 378 1117.7 378C1135.7 378 1152.2 381.833 1167.2 389.5C1182.2 396.833 1195.2 406.833 1206.2 419.5C1217.53 432.167 1226.2 446.667 1232.2 463C1238.2 479 1241.2 495.667 1241.2 513C1241.2 537.333 1236.2 559.833 1226.2 580.5C1216.53 600.833 1202.7 617.167 1184.7 629.5C1167.03 641.833 1146.53 648 1123.2 648ZM1113.7 618C1132.7 618 1149.03 613 1162.7 603C1176.7 592.667 1187.53 579.5 1195.2 563.5C1202.87 547.5 1206.7 530.667 1206.7 513C1206.7 494.333 1202.37 477 1193.7 461C1185.03 445 1173.37 432.167 1158.7 422.5C1144.37 412.833 1128.03 408 1109.7 408C1098.37 408 1086.37 411 1073.7 417C1061.37 422.667 1050.37 430.5 1040.7 440.5C1031.37 450.167 1025.87 460.833 1024.2 472.5V552.5C1031.87 570.833 1043.87 586.333 1060.2 599C1076.53 611.667 1094.37 618 1113.7 618ZM1277.79 568C1277.79 552 1282.46 538.167 1291.79 526.5C1301.13 514.5 1313.96 505.167 1330.29 498.5C1346.96 491.833 1366.13 488.5 1387.79 488.5C1400.46 488.5 1413.63 489.667 1427.29 492C1440.96 494 1453.13 496.833 1463.79 500.5V478.5C1463.79 456.5 1457.29 439 1444.29 426C1431.29 413 1413.29 406.5 1390.29 406.5C1376.63 406.5 1362.96 409.167 1349.29 414.5C1335.63 419.5 1321.46 427 1306.79 437L1293.79 413C1310.79 401.333 1327.46 392.667 1343.79 387C1360.13 381 1376.79 378 1393.79 378C1425.79 378 1451.13 387.167 1469.79 405.5C1488.46 423.833 1497.79 449.167 1497.79 481.5V602C1497.79 611 1501.96 615.667 1510.29 616V643C1502.96 644 1497.79 644.333 1494.79 644C1486.46 643.667 1480.13 641 1475.79 636C1471.46 631 1469.13 625.667 1468.79 620L1468.29 601C1456.63 616 1441.46 627.667 1422.79 636C1404.13 644 1385.13 648 1365.79 648C1348.79 648 1333.63 644.5 1320.29 637.5C1306.96 630.167 1296.46 620.5 1288.79 608.5C1281.46 596.167 1277.79 582.667 1277.79 568ZM1452.29 588C1459.96 579 1463.79 570.667 1463.79 563V525C1440.79 516 1416.79 511.5 1391.79 511.5C1367.46 511.5 1347.79 516.333 1332.79 526C1317.79 535.667 1310.29 548.833 1310.29 565.5C1310.29 579.833 1315.79 592.833 1326.79 604.5C1338.13 616.167 1353.79 622 1373.79 622C1390.13 622 1405.29 618.833 1419.29 612.5C1433.63 606.167 1444.63 598 1452.29 588ZM1684.25 648C1658.92 648 1636.42 641.833 1616.75 629.5C1597.09 616.833 1581.59 600.333 1570.25 580C1558.92 559.333 1553.25 536.667 1553.25 512C1553.25 487.333 1558.75 465 1569.75 445C1580.75 424.667 1596.09 408.5 1615.75 396.5C1635.42 384.167 1658.09 378 1683.75 378C1708.09 378 1729.42 383.667 1747.75 395C1766.42 406 1780.42 421 1789.75 440L1756.75 450.5C1749.42 437.167 1739.09 426.833 1725.75 419.5C1712.75 411.833 1698.25 408 1682.25 408C1664.59 408 1648.59 412.5 1634.25 421.5C1620.25 430.5 1608.92 443 1600.25 459C1591.92 474.667 1587.75 492.333 1587.75 512C1587.75 531.667 1592.09 549.5 1600.75 565.5C1609.42 581.5 1620.92 594.333 1635.25 604C1649.59 613.333 1665.42 618 1682.75 618C1694.09 618 1705.09 616 1715.75 612C1726.42 608 1735.59 602.667 1743.25 596C1750.92 589 1756.09 581.5 1758.75 573.5L1792.25 583.5C1787.59 595.833 1779.92 607 1769.25 617C1758.59 626.667 1745.92 634.333 1731.25 640C1716.59 645.333 1700.92 648 1684.25 648ZM1955.73 648C1930.73 648 1908.39 641.833 1888.73 629.5C1869.06 617.167 1853.56 600.667 1842.23 580C1830.89 559.333 1825.23 536.667 1825.23 512C1825.23 487.667 1830.73 465.333 1841.73 445C1853.06 424.667 1868.56 408.5 1888.23 396.5C1907.89 384.167 1930.23 378 1955.23 378C1980.89 378 2003.39 384.167 2022.73 396.5C2042.06 408.833 2057.06 425.167 2067.73 445.5C2078.73 465.5 2084.23 487.5 2084.23 511.5C2084.23 516.833 2084.06 521.333 2083.73 525H1860.73C1862.39 543.667 1867.73 560.333 1876.73 575C1885.73 589.333 1897.23 600.833 1911.23 609.5C1925.23 617.833 1940.56 622 1957.23 622C1974.23 622 1990.23 617.667 2005.23 609C2020.23 600.333 2030.89 589 2037.23 575L2066.73 583C2061.39 595.667 2053.06 607 2041.73 617C2030.73 626.667 2017.89 634.333 2003.23 640C1988.56 645.333 1972.73 648 1955.73 648ZM1859.73 500.5H2052.23C2050.89 481.833 2045.73 465.333 2036.73 451C2027.73 436.333 2016.23 425 2002.23 417C1988.23 408.667 1972.73 404.5 1955.73 404.5C1938.73 404.5 1923.23 408.667 1909.23 417C1895.23 425 1883.73 436.333 1874.73 451C1866.06 465.333 1861.06 481.833 1859.73 500.5ZM2264.18 648C2243.85 648 2225.02 642.833 2207.68 632.5C2190.35 621.833 2176.85 608.5 2167.18 592.5V643H2136.68V278H2170.68V437C2182.35 419.333 2196.35 405.167 2212.68 394.5C2229.02 383.5 2248.02 378 2269.68 378C2288.02 378 2304.35 381.833 2318.68 389.5C2333.35 397.167 2345.85 407.5 2356.18 420.5C2366.52 433.167 2374.35 447.667 2379.68 464C2385.02 480 2387.68 496.5 2387.68 513.5C2387.68 537.833 2382.18 560.167 2371.18 580.5C2360.52 600.833 2345.85 617.167 2327.18 629.5C2308.52 641.833 2287.52 648 2264.18 648ZM2256.18 618C2275.18 618 2291.85 613 2306.18 603C2320.85 593 2332.35 580.167 2340.68 564.5C2349.02 548.5 2353.18 531.5 2353.18 513.5C2353.18 495.167 2349.18 478 2341.18 462C2333.52 446 2322.68 433 2308.68 423C2294.68 413 2278.52 408 2260.18 408C2239.85 408 2221.85 414.5 2206.18 427.5C2190.85 440.5 2179.02 455.667 2170.68 473V554C2172.35 566 2177.85 576.833 2187.18 586.5C2196.52 596.167 2207.52 603.833 2220.18 609.5C2232.85 615.167 2244.85 618 2256.18 618ZM2445.28 328V278H2479.28V328H2445.28ZM2445.28 643V382.5H2479.28V643H2445.28ZM2773.16 643H2739.16V497.5C2739.16 466.833 2734.5 444.5 2725.16 430.5C2716.16 416.167 2702.16 409 2683.16 409C2669.83 409 2656.66 412.333 2643.66 419C2630.66 425.333 2619.16 434.167 2609.16 445.5C2599.5 456.5 2592.5 469.167 2588.16 483.5V643H2554.16V382.5H2585.16V441.5C2595.5 422.5 2610.66 407.167 2630.66 395.5C2650.66 383.833 2672.33 378 2695.66 378C2715 378 2730.33 382.667 2741.66 392C2753 401 2761 414 2765.66 431C2770.66 447.667 2773.16 467.5 2773.16 490.5V643Z" fill="url(#paint1_linear)"/>
</g>
<g filter="url(#filter1_d)">
<path d="M763.76 751.6C763.312 751.856 762.128 752.432 760.208 753.328C758.288 754.16 755.984 754.576 753.296 754.576C750.672 754.576 748.368 753.808 746.384 752.272C744.464 750.736 743.504 748.528 743.504 745.648V708.016H736.496V704.08H743.504V686.992H748.304V704.08H759.92V708.016H748.304V744.496C748.432 746.352 749.104 747.76 750.32 748.72C751.536 749.616 752.944 750.064 754.544 750.064C756.528 750.064 758.256 749.744 759.728 749.104C761.2 748.4 762.064 747.952 762.32 747.76L763.76 751.6ZM811.717 754.96C807.045 754.96 802.821 753.776 799.045 751.408C795.333 749.04 792.389 745.872 790.213 741.904C788.101 737.936 787.045 733.584 787.045 728.848C787.045 724.176 788.101 719.92 790.213 716.08C792.325 712.176 795.237 709.072 798.949 706.768C802.661 704.4 806.821 703.216 811.429 703.216C816.165 703.216 820.357 704.4 824.005 706.768C827.717 709.072 830.629 712.176 832.741 716.08C834.853 719.984 835.909 724.24 835.909 728.848C835.909 729.616 835.877 730.32 835.813 730.96H792.037C792.293 734.8 793.349 738.256 795.205 741.328C797.061 744.336 799.429 746.736 802.309 748.528C805.253 750.256 808.453 751.12 811.909 751.12C815.365 751.12 818.629 750.224 821.701 748.432C824.773 746.64 826.917 744.336 828.133 741.52L832.357 742.672C831.397 745.04 829.861 747.152 827.749 749.008C825.701 750.864 823.269 752.336 820.453 753.424C817.701 754.448 814.789 754.96 811.717 754.96ZM791.845 727.216H831.301C831.045 723.312 829.989 719.856 828.133 716.848C826.341 713.776 824.005 711.408 821.125 709.744C818.245 708.016 815.045 707.152 811.525 707.152C808.005 707.152 804.805 708.016 801.925 709.744C799.045 711.472 796.709 713.872 794.917 716.944C793.125 719.952 792.101 723.376 791.845 727.216ZM863.504 704.08L879.44 724.72L880.208 726.064L880.976 724.72L896.816 704.08H902.384L882.992 729.136L902.288 754H896.72L880.976 733.456L880.208 732.208L879.44 733.456L863.6 754H858.128L877.328 729.136L858.032 704.08H863.504ZM952.985 751.6C952.537 751.856 951.353 752.432 949.433 753.328C947.513 754.16 945.209 754.576 942.521 754.576C939.897 754.576 937.593 753.808 935.609 752.272C933.689 750.736 932.729 748.528 932.729 745.648V708.016H925.721V704.08H932.729V686.992H937.529V704.08H949.145V708.016H937.529V744.496C937.657 746.352 938.329 747.76 939.545 748.72C940.761 749.616 942.169 750.064 943.769 750.064C945.753 750.064 947.481 749.744 948.953 749.104C950.425 748.4 951.289 747.952 951.545 747.76L952.985 751.6ZM1084.12 754.96C1080.15 754.96 1076.47 754.288 1073.08 752.944C1069.69 751.6 1066.71 749.552 1064.15 746.8L1066.36 743.44C1069.05 746.064 1071.8 747.984 1074.62 749.2C1077.5 750.352 1080.6 750.928 1083.93 750.928C1088.15 750.928 1091.61 750.032 1094.3 748.24C1096.98 746.448 1098.33 743.952 1098.33 740.752C1098.33 738.576 1097.69 736.912 1096.41 735.76C1095.19 734.608 1093.4 733.648 1091.03 732.88C1088.73 732.112 1085.91 731.312 1082.58 730.48C1079.19 729.584 1076.34 728.656 1074.04 727.696C1071.74 726.736 1069.98 725.488 1068.76 723.952C1067.61 722.416 1067.03 720.336 1067.03 717.712C1067.03 714.448 1067.83 711.76 1069.43 709.648C1071.1 707.472 1073.3 705.872 1076.06 704.848C1078.87 703.76 1081.98 703.216 1085.37 703.216C1089.27 703.216 1092.66 703.856 1095.54 705.136C1098.49 706.416 1100.73 708.112 1102.26 710.224L1099.67 713.296C1098.14 711.312 1096.06 709.808 1093.43 708.784C1090.81 707.76 1087.99 707.248 1084.98 707.248C1082.62 707.248 1080.41 707.568 1078.36 708.208C1076.38 708.848 1074.74 709.904 1073.46 711.376C1072.25 712.784 1071.64 714.704 1071.64 717.136C1071.64 719.056 1072.09 720.56 1072.98 721.648C1073.88 722.736 1075.26 723.632 1077.11 724.336C1078.97 724.976 1081.3 725.68 1084.12 726.448C1088.02 727.408 1091.38 728.4 1094.2 729.424C1097.02 730.448 1099.19 731.792 1100.73 733.456C1102.26 735.056 1103.03 737.328 1103.03 740.272C1103.03 744.816 1101.3 748.4 1097.85 751.024C1094.39 753.648 1089.82 754.96 1084.12 754.96ZM1174.31 754H1169.51V726.16C1169.51 713.808 1165.38 707.632 1157.13 707.632C1154.44 707.632 1151.82 708.304 1149.26 709.648C1146.7 710.992 1144.42 712.848 1142.44 715.216C1140.52 717.52 1139.14 720.144 1138.31 723.088V754H1133.51V683.92H1138.31V715.984C1140.36 712.08 1143.21 708.976 1146.86 706.672C1150.5 704.368 1154.38 703.216 1158.47 703.216C1164.04 703.216 1168.07 705.2 1170.57 709.168C1173.06 713.072 1174.31 718.448 1174.31 725.296V754ZM1203.9 739.6C1203.9 736.656 1204.76 734.064 1206.49 731.824C1208.28 729.584 1210.75 727.856 1213.88 726.64C1217.08 725.36 1220.73 724.72 1224.83 724.72C1227.39 724.72 1230.04 724.944 1232.79 725.392C1235.61 725.84 1238.07 726.448 1240.19 727.216V722.512C1240.19 717.904 1238.84 714.224 1236.15 711.472C1233.47 708.72 1229.82 707.344 1225.21 707.344C1222.71 707.344 1220.12 707.856 1217.43 708.88C1214.75 709.904 1211.99 711.376 1209.18 713.296L1207.16 709.84C1213.69 705.424 1219.87 703.216 1225.69 703.216C1231.58 703.216 1236.25 704.976 1239.71 708.496C1243.23 712.016 1244.99 716.816 1244.99 722.896V747.664C1244.99 749.2 1245.69 750 1247.1 750.064V754C1245.88 754.128 1245.08 754.16 1244.7 754.096C1243.48 753.968 1242.52 753.456 1241.82 752.56C1241.18 751.664 1240.83 750.736 1240.76 749.776V745.84C1238.46 748.72 1235.48 750.96 1231.83 752.56C1228.25 754.16 1224.47 754.96 1220.51 754.96C1217.37 754.96 1214.52 754.288 1211.96 752.944C1209.47 751.536 1207.48 749.68 1206.01 747.376C1204.6 745.072 1203.9 742.48 1203.9 739.6ZM1238.27 743.728C1239.55 742.128 1240.19 740.624 1240.19 739.216V730.96C1235.58 729.168 1230.62 728.272 1225.31 728.272C1220.25 728.272 1216.19 729.296 1213.11 731.344C1210.04 733.328 1208.51 735.984 1208.51 739.312C1208.51 741.424 1209.05 743.376 1210.14 745.168C1211.23 746.96 1212.73 748.4 1214.65 749.488C1216.63 750.576 1218.91 751.12 1221.47 751.12C1225.05 751.12 1228.35 750.448 1231.35 749.104C1234.36 747.696 1236.67 745.904 1238.27 743.728ZM1302.4 708.4C1297.92 708.528 1293.99 709.872 1290.6 712.432C1287.27 714.928 1284.93 718.384 1283.59 722.8V754H1278.79V704.08H1283.4V716.368C1285.12 712.912 1287.43 710.064 1290.31 707.824C1293.19 705.584 1296.23 704.304 1299.43 703.984C1300.07 703.984 1300.61 703.984 1301.06 703.984C1301.57 703.92 1302.02 703.888 1302.4 703.888V708.4ZM1330.71 692.752V683.92H1335.51V692.752H1330.71ZM1330.71 754V704.08H1335.51V754H1330.71ZM1410.58 754H1405.78V726.16C1405.78 719.76 1404.85 715.088 1403 712.144C1401.14 709.136 1398.26 707.632 1394.36 707.632C1391.54 707.632 1388.79 708.304 1386.1 709.648C1383.41 710.992 1381.05 712.848 1379 715.216C1376.95 717.52 1375.48 720.144 1374.58 723.088V754H1369.78V704.08H1374.29V715.984C1376.28 712.208 1379.22 709.136 1383.13 706.768C1387.09 704.4 1391.29 703.216 1395.7 703.216C1401.14 703.216 1404.98 705.136 1407.22 708.976C1409.46 712.816 1410.58 718.256 1410.58 725.296V754ZM1464.45 754.768C1461.06 754.768 1457.93 754.064 1455.05 752.656C1452.17 751.248 1449.67 749.328 1447.56 746.896C1445.45 744.464 1443.78 741.712 1442.57 738.64C1441.41 735.568 1440.84 732.4 1440.84 729.136C1440.84 724.592 1441.83 720.368 1443.81 716.464C1445.8 712.496 1448.52 709.296 1451.97 706.864C1455.49 704.432 1459.53 703.216 1464.07 703.216C1468.42 703.216 1472.2 704.368 1475.4 706.672C1478.66 708.912 1481.41 711.664 1483.65 714.928V704.08H1488.07V754.96C1488.07 759.504 1486.98 763.28 1484.81 766.288C1482.63 769.296 1479.75 771.568 1476.17 773.104C1472.58 774.64 1468.71 775.408 1464.55 775.408C1458.73 775.408 1454.09 774.352 1450.63 772.24C1447.24 770.128 1444.49 767.344 1442.37 763.888L1445.64 761.68C1447.62 765.072 1450.31 767.536 1453.7 769.072C1457.09 770.672 1460.71 771.472 1464.55 771.472C1467.94 771.472 1471.05 770.832 1473.86 769.552C1476.74 768.336 1479.01 766.512 1480.68 764.08C1482.41 761.648 1483.27 758.608 1483.27 754.96V744.016C1481.29 747.28 1478.57 749.904 1475.11 751.888C1471.72 753.808 1468.17 754.768 1464.45 754.768ZM1465.61 750.64C1468.42 750.64 1471.11 749.968 1473.67 748.624C1476.29 747.28 1478.47 745.584 1480.2 743.536C1481.93 741.488 1482.95 739.376 1483.27 737.2V720.784C1482.31 718.224 1480.87 715.952 1478.95 713.968C1477.03 711.984 1474.82 710.416 1472.33 709.264C1469.89 708.112 1467.4 707.536 1464.84 707.536C1460.81 707.536 1457.35 708.624 1454.47 710.8C1451.65 712.976 1449.48 715.728 1447.94 719.056C1446.47 722.384 1445.73 725.776 1445.73 729.232C1445.73 733.008 1446.6 736.528 1448.33 739.792C1450.12 743.056 1452.52 745.68 1455.53 747.664C1458.6 749.648 1461.96 750.64 1465.61 750.64ZM1568.34 754V708.016H1561.33V704.08H1568.34V702.448C1568.34 696.368 1569.59 691.6 1572.08 688.144C1574.64 684.688 1578.1 682.96 1582.45 682.96C1584.37 682.96 1586.23 683.248 1588.02 683.824C1589.81 684.4 1591.28 685.168 1592.44 686.128L1590.71 689.584C1588.79 687.984 1586.32 687.184 1583.32 687.184C1580.05 687.184 1577.52 688.496 1575.73 691.12C1574 693.68 1573.14 697.424 1573.14 702.352V704.08H1587.35V708.016H1573.14V754H1568.34ZM1634.95 754.96C1630.28 754.96 1626.08 753.776 1622.37 751.408C1618.72 749.04 1615.84 745.904 1613.73 742C1611.62 738.096 1610.56 733.808 1610.56 729.136C1610.56 725.616 1611.17 722.32 1612.39 719.248C1613.6 716.112 1615.33 713.36 1617.57 710.992C1619.81 708.56 1622.4 706.672 1625.35 705.328C1628.29 703.92 1631.49 703.216 1634.95 703.216C1638.4 703.216 1641.6 703.92 1644.55 705.328C1647.49 706.672 1650.05 708.56 1652.23 710.992C1654.47 713.36 1656.2 716.112 1657.41 719.248C1658.69 722.32 1659.33 725.616 1659.33 729.136C1659.33 733.808 1658.24 738.096 1656.07 742C1653.96 745.904 1651.04 749.04 1647.33 751.408C1643.68 753.776 1639.56 754.96 1634.95 754.96ZM1615.36 729.328C1615.36 733.232 1616.23 736.816 1617.96 740.08C1619.75 743.28 1622.12 745.84 1625.06 747.76C1628 749.68 1631.27 750.64 1634.85 750.64C1638.44 750.64 1641.7 749.68 1644.64 747.76C1647.65 745.776 1650.02 743.152 1651.75 739.888C1653.54 736.624 1654.44 733.008 1654.44 729.04C1654.44 725.136 1653.54 721.552 1651.75 718.288C1650.02 715.024 1647.65 712.432 1644.64 710.512C1641.7 708.528 1638.47 707.536 1634.95 707.536C1631.36 707.536 1628.1 708.528 1625.16 710.512C1622.21 712.496 1619.84 715.152 1618.05 718.48C1616.26 721.744 1615.36 725.36 1615.36 729.328ZM1713.65 708.4C1709.17 708.528 1705.23 709.872 1701.84 712.432C1698.51 714.928 1696.18 718.384 1694.83 722.8V754H1690.03V704.08H1694.64V716.368C1696.37 712.912 1698.67 710.064 1701.55 707.824C1704.43 705.584 1707.47 704.304 1710.67 703.984C1711.31 703.984 1711.86 703.984 1712.3 703.984C1712.82 703.92 1713.26 703.888 1713.65 703.888V708.4ZM1805.73 751.6C1805.29 751.856 1804.1 752.432 1802.18 753.328C1800.26 754.16 1797.96 754.576 1795.27 754.576C1792.65 754.576 1790.34 753.808 1788.36 752.272C1786.44 750.736 1785.48 748.528 1785.48 745.648V708.016H1778.47V704.08H1785.48V686.992H1790.28V704.08H1801.89V708.016H1790.28V744.496C1790.41 746.352 1791.08 747.76 1792.29 748.72C1793.51 749.616 1794.92 750.064 1796.52 750.064C1798.5 750.064 1800.23 749.744 1801.7 749.104C1803.17 748.4 1804.04 747.952 1804.29 747.76L1805.73 751.6ZM1874.21 754H1869.41V726.16C1869.41 713.808 1865.29 707.632 1857.03 707.632C1854.34 707.632 1851.72 708.304 1849.16 709.648C1846.6 710.992 1844.33 712.848 1842.34 715.216C1840.42 717.52 1839.05 720.144 1838.21 723.088V754H1833.41V683.92H1838.21V715.984C1840.26 712.08 1843.11 708.976 1846.76 706.672C1850.41 704.368 1854.28 703.216 1858.37 703.216C1863.94 703.216 1867.97 705.2 1870.47 709.168C1872.97 713.072 1874.21 718.448 1874.21 725.296V754ZM1929.14 754.96C1924.47 754.96 1920.25 753.776 1916.47 751.408C1912.76 749.04 1909.81 745.872 1907.64 741.904C1905.53 737.936 1904.47 733.584 1904.47 728.848C1904.47 724.176 1905.53 719.92 1907.64 716.08C1909.75 712.176 1912.66 709.072 1916.37 706.768C1920.09 704.4 1924.25 703.216 1928.85 703.216C1933.59 703.216 1937.78 704.4 1941.43 706.768C1945.14 709.072 1948.05 712.176 1950.17 716.08C1952.28 719.984 1953.33 724.24 1953.33 728.848C1953.33 729.616 1953.3 730.32 1953.24 730.96H1909.46C1909.72 734.8 1910.77 738.256 1912.63 741.328C1914.49 744.336 1916.85 746.736 1919.73 748.528C1922.68 750.256 1925.88 751.12 1929.33 751.12C1932.79 751.12 1936.05 750.224 1939.13 748.432C1942.2 746.64 1944.34 744.336 1945.56 741.52L1949.78 742.672C1948.82 745.04 1947.29 747.152 1945.17 749.008C1943.13 750.864 1940.69 752.336 1937.88 753.424C1935.13 754.448 1932.21 754.96 1929.14 754.96ZM1909.27 727.216H1948.73C1948.47 723.312 1947.41 719.856 1945.56 716.848C1943.77 713.776 1941.43 711.408 1938.55 709.744C1935.67 708.016 1932.47 707.152 1928.95 707.152C1925.43 707.152 1922.23 708.016 1919.35 709.744C1916.47 711.472 1914.13 713.872 1912.34 716.944C1910.55 719.952 1909.53 723.376 1909.27 727.216ZM2029.16 754V708.016H2022.15V704.08H2029.16V702.448C2029.16 696.368 2030.41 691.6 2032.9 688.144C2035.46 684.688 2038.92 682.96 2043.27 682.96C2045.19 682.96 2047.05 683.248 2048.84 683.824C2050.63 684.4 2052.1 685.168 2053.25 686.128L2051.53 689.584C2049.61 687.984 2047.14 687.184 2044.13 687.184C2040.87 687.184 2038.34 688.496 2036.55 691.12C2034.82 693.68 2033.96 697.424 2033.96 702.352V704.08H2048.17V708.016H2033.96V754H2029.16ZM2076.71 692.752V683.92H2081.51V692.752H2076.71ZM2076.71 754V704.08H2081.51V754H2076.71ZM2156.59 754H2151.79V726.16C2151.79 719.76 2150.86 715.088 2149 712.144C2147.15 709.136 2144.27 707.632 2140.36 707.632C2137.55 707.632 2134.8 708.304 2132.11 709.648C2129.42 710.992 2127.05 712.848 2125 715.216C2122.96 717.52 2121.48 720.144 2120.59 723.088V754H2115.79V704.08H2120.3V715.984C2122.28 712.208 2125.23 709.136 2129.13 706.768C2133.1 704.4 2137.29 703.216 2141.71 703.216C2147.15 703.216 2150.99 705.136 2153.23 708.976C2155.47 712.816 2156.59 718.256 2156.59 725.296V754ZM2186.17 739.6C2186.17 736.656 2187.04 734.064 2188.76 731.824C2190.56 729.584 2193.02 727.856 2196.16 726.64C2199.36 725.36 2203 724.72 2207.1 724.72C2209.66 724.72 2212.32 724.944 2215.07 725.392C2217.88 725.84 2220.35 726.448 2222.46 727.216V722.512C2222.46 717.904 2221.12 714.224 2218.43 711.472C2215.74 708.72 2212.09 707.344 2207.48 707.344C2204.99 707.344 2202.4 707.856 2199.71 708.88C2197.02 709.904 2194.27 711.376 2191.45 713.296L2189.44 709.84C2195.96 705.424 2202.14 703.216 2207.96 703.216C2213.85 703.216 2218.52 704.976 2221.98 708.496C2225.5 712.016 2227.26 716.816 2227.26 722.896V747.664C2227.26 749.2 2227.96 750 2229.37 750.064V754C2228.16 754.128 2227.36 754.16 2226.97 754.096C2225.76 753.968 2224.8 753.456 2224.09 752.56C2223.45 751.664 2223.1 750.736 2223.04 749.776V745.84C2220.73 748.72 2217.76 750.96 2214.11 752.56C2210.52 754.16 2206.75 754.96 2202.78 754.96C2199.64 754.96 2196.8 754.288 2194.24 752.944C2191.74 751.536 2189.76 749.68 2188.28 747.376C2186.88 745.072 2186.17 742.48 2186.17 739.6ZM2220.54 743.728C2221.82 742.128 2222.46 740.624 2222.46 739.216V730.96C2217.85 729.168 2212.89 728.272 2207.58 728.272C2202.52 728.272 2198.46 729.296 2195.39 731.344C2192.32 733.328 2190.78 735.984 2190.78 739.312C2190.78 741.424 2191.32 743.376 2192.41 745.168C2193.5 746.96 2195 748.4 2196.92 749.488C2198.91 750.576 2201.18 751.12 2203.74 751.12C2207.32 751.12 2210.62 750.448 2213.63 749.104C2216.64 747.696 2218.94 745.904 2220.54 743.728ZM2261.45 683.92H2266.34V744.112C2266.34 746.416 2266.82 748.016 2267.78 748.912C2268.74 749.744 2269.99 750.16 2271.53 750.16C2272.55 750.16 2273.61 750.064 2274.7 749.872C2275.78 749.68 2276.74 749.424 2277.58 749.104L2278.54 753.04C2277.45 753.424 2276.1 753.776 2274.5 754.096C2272.9 754.416 2271.53 754.576 2270.38 754.576C2267.69 754.576 2265.51 753.776 2263.85 752.176C2262.25 750.512 2261.45 748.304 2261.45 745.552V683.92ZM2348.17 754V708.016H2341.16V704.08H2348.17V702.448C2348.17 696.368 2349.42 691.6 2351.91 688.144C2354.47 684.688 2357.93 682.96 2362.28 682.96C2364.2 682.96 2366.06 683.248 2367.85 683.824C2369.64 684.4 2371.11 685.168 2372.27 686.128L2370.54 689.584C2368.62 687.984 2366.15 687.184 2363.15 687.184C2359.88 687.184 2357.35 688.496 2355.56 691.12C2353.83 693.68 2352.97 697.424 2352.97 702.352V704.08H2367.18V708.016H2352.97V754H2348.17ZM2419.34 708.4C2414.86 708.528 2410.93 709.872 2407.53 712.432C2404.21 714.928 2401.87 718.384 2400.53 722.8V754H2395.73V704.08H2400.33V716.368C2402.06 712.912 2404.37 710.064 2407.25 707.824C2410.13 705.584 2413.17 704.304 2416.37 703.984C2417.01 703.984 2417.55 703.984 2418 703.984C2418.51 703.92 2418.96 703.888 2419.34 703.888V708.4ZM2466.7 754.96C2462.03 754.96 2457.83 753.776 2454.12 751.408C2450.47 749.04 2447.59 745.904 2445.48 742C2443.37 738.096 2442.31 733.808 2442.31 729.136C2442.31 725.616 2442.92 722.32 2444.14 719.248C2445.35 716.112 2447.08 713.36 2449.32 710.992C2451.56 708.56 2454.15 706.672 2457.1 705.328C2460.04 703.92 2463.24 703.216 2466.7 703.216C2470.15 703.216 2473.35 703.92 2476.3 705.328C2479.24 706.672 2481.8 708.56 2483.98 710.992C2486.22 713.36 2487.95 716.112 2489.16 719.248C2490.44 722.32 2491.08 725.616 2491.08 729.136C2491.08 733.808 2489.99 738.096 2487.82 742C2485.71 745.904 2482.79 749.04 2479.08 751.408C2475.43 753.776 2471.31 754.96 2466.7 754.96ZM2447.11 729.328C2447.11 733.232 2447.98 736.816 2449.71 740.08C2451.5 743.28 2453.87 745.84 2456.81 747.76C2459.75 749.68 2463.02 750.64 2466.6 750.64C2470.19 750.64 2473.45 749.68 2476.39 747.76C2479.4 745.776 2481.77 743.152 2483.5 739.888C2485.29 736.624 2486.19 733.008 2486.19 729.04C2486.19 725.136 2485.29 721.552 2483.5 718.288C2481.77 715.024 2479.4 712.432 2476.39 710.512C2473.45 708.528 2470.22 707.536 2466.7 707.536C2463.11 707.536 2459.85 708.528 2456.91 710.512C2453.96 712.496 2451.59 715.152 2449.8 718.48C2448.01 721.744 2447.11 725.36 2447.11 729.328ZM2562.58 754H2557.78V726.16C2557.78 719.76 2556.85 715.088 2555 712.144C2553.14 709.136 2550.26 707.632 2546.36 707.632C2543.54 707.632 2540.79 708.304 2538.1 709.648C2535.41 710.992 2533.05 712.848 2531 715.216C2528.95 717.52 2527.48 720.144 2526.58 723.088V754H2521.78V704.08H2526.29V715.984C2528.28 712.208 2531.22 709.136 2535.13 706.768C2539.09 704.4 2543.29 703.216 2547.7 703.216C2553.14 703.216 2556.98 705.136 2559.22 708.976C2561.46 712.816 2562.58 718.256 2562.58 725.296V754ZM2618.1 751.6C2617.65 751.856 2616.47 752.432 2614.55 753.328C2612.63 754.16 2610.32 754.576 2607.63 754.576C2605.01 754.576 2602.71 753.808 2600.72 752.272C2598.8 750.736 2597.84 748.528 2597.84 745.648V708.016H2590.83V704.08H2597.84V686.992H2602.64V704.08H2614.26V708.016H2602.64V744.496C2602.77 746.352 2603.44 747.76 2604.66 748.72C2605.87 749.616 2607.28 750.064 2608.88 750.064C2610.87 750.064 2612.59 749.744 2614.07 749.104C2615.54 748.4 2616.4 747.952 2616.66 747.76L2618.1 751.6ZM2645.78 692.752V683.92H2650.58V692.752H2645.78ZM2645.78 754V704.08H2650.58V754H2645.78ZM2706.07 754.96C2701.39 754.96 2697.17 753.776 2693.39 751.408C2689.68 749.04 2686.74 745.872 2684.56 741.904C2682.45 737.936 2681.39 733.584 2681.39 728.848C2681.39 724.176 2682.45 719.92 2684.56 716.08C2686.67 712.176 2689.59 709.072 2693.3 706.768C2697.01 704.4 2701.17 703.216 2705.78 703.216C2710.51 703.216 2714.71 704.4 2718.35 706.768C2722.07 709.072 2724.98 712.176 2727.09 716.08C2729.2 719.984 2730.26 724.24 2730.26 728.848C2730.26 729.616 2730.23 730.32 2730.16 730.96H2686.39C2686.64 734.8 2687.7 738.256 2689.55 741.328C2691.41 744.336 2693.78 746.736 2696.66 748.528C2699.6 750.256 2702.8 751.12 2706.26 751.12C2709.71 751.12 2712.98 750.224 2716.05 748.432C2719.12 746.64 2721.27 744.336 2722.48 741.52L2726.71 742.672C2725.75 745.04 2724.21 747.152 2722.1 749.008C2720.05 750.864 2717.62 752.336 2714.8 753.424C2712.05 754.448 2709.14 754.96 2706.07 754.96ZM2686.19 727.216H2725.65C2725.39 723.312 2724.34 719.856 2722.48 716.848C2720.69 713.776 2718.35 711.408 2715.47 709.744C2712.59 708.016 2709.39 707.152 2705.87 707.152C2702.35 707.152 2699.15 708.016 2696.27 709.744C2693.39 711.472 2691.06 713.872 2689.27 716.944C2687.47 719.952 2686.45 723.376 2686.19 727.216ZM2783.64 708.4C2779.16 708.528 2775.22 709.872 2771.83 712.432C2768.5 714.928 2766.16 718.384 2764.82 722.8V754H2760.02V704.08H2764.63V716.368C2766.36 712.912 2768.66 710.064 2771.54 707.824C2774.42 705.584 2777.46 704.304 2780.66 703.984C2781.3 703.984 2781.84 703.984 2782.29 703.984C2782.8 703.92 2783.25 703.888 2783.64 703.888V708.4Z" fill="url(#paint2_linear)"/>
</g>
<defs>
<filter id="filter0_d" x="713" y="278" width="2060.16" height="485.5" filterUnits="userSpaceOnUse" color-interpolation-filters="sRGB">
<feFlood flood-opacity="0" result="BackgroundImageFix"/>
<feColorMatrix in="SourceAlpha" type="matrix" values="0 0 0 0 0 0 0 0 0 0 0 0 0 0 0 0 0 0 127 0"/>
<feOffset dx="-10" dy="10"/>
<feGaussianBlur stdDeviation="2"/>
<feColorMatrix type="matrix" values="0 0 0 0 0 0 0 0 0 0 0 0 0 0 0 0 0 0 0.25 0"/>
<feBlend mode="normal" in2="BackgroundImageFix" result="effect1_dropShadow"/>
<feBlend mode="normal" in="SourceGraphic" in2="effect1_dropShadow" result="shape"/>
</filter>
<filter id="filter1_d" x="726.496" y="682.96" width="2057.14" height="101.448" filterUnits="userSpaceOnUse" color-interpolation-filters="sRGB">
<feFlood flood-opacity="0" result="BackgroundImageFix"/>
<feColorMatrix in="SourceAlpha" type="matrix" values="0 0 0 0 0 0 0 0 0 0 0 0 0 0 0 0 0 0 127 0"/>
<feOffset dx="-6" dy="5"/>
<feGaussianBlur stdDeviation="2"/>
<feColorMatrix type="matrix" values="0 0 0 0 0 0 0 0 0 0 0 0 0 0 0 0 0 0 0.25 0"/>
<feBlend mode="normal" in2="BackgroundImageFix" result="effect1_dropShadow"/>
<feBlend mode="normal" in="SourceGraphic" in2="effect1_dropShadow" result="shape"/>
</filter>
<linearGradient id="paint0_linear" x1="154.648" y1="368.928" x2="493.588" y2="751.63" gradientUnits="userSpaceOnUse">
<stop stop-color="#F207B0"/>
<stop offset="1" stop-color="#E44C4C" stop-opacity="0.93"/>
</linearGradient>
<linearGradient id="paint1_linear" x1="825.436" y1="247.43" x2="1455.03" y2="940.886" gradientUnits="userSpaceOnUse">
<stop stop-color="#F207B0"/>
<stop offset="1" stop-color="#E44C4C"/>
</linearGradient>
<linearGradient id="paint2_linear" x1="1760" y1="664" x2="1760" y2="777" gradientUnits="userSpaceOnUse">
<stop stop-color="#F207B0"/>
<stop offset="1" stop-color="#E44C4C"/>
</linearGradient>
<clipPath id="clip0">
<rect width="349.743" height="312.645" fill="white" transform="translate(219.006 551.354)"/>
</clipPath>
</defs>
</svg>
